<svg width="1280" height="720" xmlns="http://www.w3.org/2000/svg">
 <defs>
  <filter id="fx0" x="-10%" y="-10%" width="120%" height="120%" filterUnits="userSpaceOnUse" primitiveUnits="userSpaceOnUse">
   <feGaussianBlur stdDeviation="0.558453 0.558453"/>
  </filter>
  <filter id="fx1" x="-10%" y="-10%" width="120%" height="120%" filterUnits="userSpaceOnUse" primitiveUnits="userSpaceOnUse">
   <feGaussianBlur stdDeviation="0.558453 0.558453"/>
  </filter>
  <filter id="fx2" x="-10%" y="-10%" width="120%" height="120%" filterUnits="userSpaceOnUse" primitiveUnits="userSpaceOnUse">
   <feGaussianBlur stdDeviation="0.558453 0.558453"/>
  </filter>
  <filter id="fx3" x="-10%" y="-10%" width="120%" height="120%" filterUnits="userSpaceOnUse" primitiveUnits="userSpaceOnUse">
   <feGaussianBlur stdDeviation="0.558453 0.558453"/>
  </filter>
  <filter id="fx4" x="-10%" y="-10%" width="120%" height="120%" filterUnits="userSpaceOnUse" primitiveUnits="userSpaceOnUse">
   <feGaussianBlur stdDeviation="0.558453 0.558453"/>
  </filter>
  <filter id="fx5" x="-10%" y="-10%" width="120%" height="120%" filterUnits="userSpaceOnUse" primitiveUnits="userSpaceOnUse">
   <feGaussianBlur stdDeviation="0.558453 0.558453"/>
  </filter>
  <filter id="fx6" x="-10%" y="-10%" width="120%" height="120%" filterUnits="userSpaceOnUse" primitiveUnits="userSpaceOnUse">
   <feGaussianBlur stdDeviation="0.558453 0.558453"/>
  </filter>
  <filter id="fx7" x="-10%" y="-10%" width="120%" height="120%" filterUnits="userSpaceOnUse" primitiveUnits="userSpaceOnUse">
   <feGaussianBlur stdDeviation="0.558453 0.558453"/>
  </filter>
  <filter id="fx8" x="-10%" y="-10%" width="120%" height="120%" filterUnits="userSpaceOnUse" primitiveUnits="userSpaceOnUse">
   <feGaussianBlur stdDeviation="0.558453 0.558453"/>
  </filter>
  <filter id="fx9" x="-10%" y="-10%" width="120%" height="120%" filterUnits="userSpaceOnUse" primitiveUnits="userSpaceOnUse">
   <feGaussianBlur stdDeviation="0.558453 0.558453"/>
  </filter>
  <filter id="fx10" x="-10%" y="-10%" width="120%" height="120%" filterUnits="userSpaceOnUse" primitiveUnits="userSpaceOnUse">
   <feGaussianBlur stdDeviation="0.558453 0.558453"/>
  </filter>
  <filter id="fx11" x="-10%" y="-10%" width="120%" height="120%" filterUnits="userSpaceOnUse" primitiveUnits="userSpaceOnUse">
   <feGaussianBlur stdDeviation="0.558453 0.558453"/>
  </filter>
  <filter id="fx12" x="-10%" y="-10%" width="120%" height="120%" filterUnits="userSpaceOnUse" primitiveUnits="userSpaceOnUse">
   <feGaussianBlur stdDeviation="0.558453 0.558453"/>
  </filter>
  <filter id="fx13" x="-10%" y="-10%" width="120%" height="120%" filterUnits="userSpaceOnUse" primitiveUnits="userSpaceOnUse">
   <feGaussianBlur stdDeviation="0.558453 0.558453"/>
  </filter>
  <filter id="fx14" x="-10%" y="-10%" width="120%" height="120%" filterUnits="userSpaceOnUse" primitiveUnits="userSpaceOnUse">
   <feGaussianBlur stdDeviation="0.558453 0.558453"/>
  </filter>
  <clipPath id="clip15">
   <rect x="18" y="12" width="223" height="28" id="svg_1"/>
  </clipPath>
  <clipPath id="clip16">
   <rect x="18" y="14" width="92" height="19" id="svg_2"/>
  </clipPath>
  <clipPath id="clip17">
   <rect x="16" y="12" width="151" height="28" id="svg_3"/>
  </clipPath>
  <clipPath id="clip18">
   <rect x="17" y="14" width="36" height="19" id="svg_4"/>
  </clipPath>
  <clipPath id="clip19">
   <rect x="17" y="13" width="138" height="21" id="svg_5"/>
  </clipPath>
  <clipPath id="clip20">
   <rect x="18" y="12" width="143" height="28" id="svg_6"/>
  </clipPath>
  <clipPath id="clip21">
   <rect x="17" y="13" width="131" height="21" id="svg_7"/>
  </clipPath>
  <clipPath id="clip22">
   <rect x="18" y="12" width="143" height="28" id="svg_8"/>
  </clipPath>
  <clipPath id="clip23">
   <rect x="17" y="12" width="270" height="28" id="svg_9"/>
  </clipPath>
  <clipPath id="clip24">
   <rect x="18" y="15" width="56" height="20" id="svg_10"/>
  </clipPath>
  <clipPath id="clip25">
   <rect x="18" y="14" width="139" height="22" id="svg_11"/>
  </clipPath>
  <clipPath id="clip26">
   <rect x="17" y="13" width="137" height="21" id="svg_12"/>
  </clipPath>
  <clipPath id="clip27">
   <rect x="18" y="13" width="72" height="21" id="svg_13"/>
  </clipPath>
  <clipPath id="clip28">
   <rect x="17" y="13" width="131" height="21" id="svg_14"/>
  </clipPath>
  <clipPath id="clip29">
   <rect x="18" y="13" width="72" height="21" id="svg_15"/>
  </clipPath>
 </defs>
 <g>
  <title>Layer 1</title>
  <g id="svg_16">
   <rect x="0" y="0" width="1280" height="720" fill="#000000" fill-opacity="0" id="svg_17"/>
   <path d="m246.5,74.3335c0,-7.0877 5.746,-12.8334 12.833,-12.8334l259.334,0c7.087,0 12.833,5.7457 12.833,12.8334l0,51.3335c0,7.087 -5.746,12.833 -12.833,12.833l-259.334,0c-7.087,0 -12.833,-5.746 -12.833,-12.833l0,-51.3335z" stroke="#69CA00" stroke-width="1.33333" stroke-miterlimit="8" fill="#69CA00" fill-rule="evenodd" id="svg_18"/>
   <g clip-path="url(#clip15)" filter="url(#fx0)" id="svg_19">
    <g id="svg_20">
     <path d="m280.9214,93.24l0,17.76l-2.184,0l0,-17.76l2.184,0zm4.77733,2.472c-0.416,0 -0.768,-0.144 -1.056,-0.432c-0.288,-0.288 -0.432,-0.64 -0.432,-1.056c0,-0.416 0.144,-0.768 0.432,-1.056c0.288,-0.288 0.64,-0.432 1.056,-0.432c0.4,0 0.74,0.144 1.02,0.432c0.27997,0.288 0.41997,0.64 0.41997,1.056c0,0.416 -0.14,0.768 -0.41997,1.056c-0.28,0.288 -0.62,0.432 -1.02,0.432zm1.056,2.136l0,13.152l-2.184,0l0,-13.152l2.184,0zm5.83337,2.448c0.448,-0.784 1.104,-1.424 1.968,-1.92c0.864,-0.496 1.848,-0.744 2.952,-0.744c1.184,0 2.248,0.28 3.192,0.84c0.944,0.56 1.688,1.348 2.232,2.364c0.544,1.016 0.816,2.196 0.816,3.54c0,1.328 -0.272,2.512 -0.816,3.552c-0.544,1.04 -1.292,1.848 -2.244,2.424c-0.952,0.576 -2.012,0.864 -3.18,0.864c-1.136,0 -2.132,-0.248 -2.988,-0.744c-0.856,-0.496 -1.5,-1.128 -1.932,-1.896l0,2.424l-2.184,0l0,-17.76l2.184,0l0,7.056zm8.928,4.08c0,-0.992 -0.2,-1.856 -0.6,-2.592c-0.4,-0.736 -0.94,-1.296 -1.62,-1.68c-0.68,-0.384 -1.428,-0.576 -2.244,-0.576c-0.8,0 -1.54,0.196 -2.22,0.588c-0.68,0.392 -1.224,0.96 -1.632,1.704c-0.408,0.744 -0.612,1.604 -0.612,2.58c0,0.992 0.204,1.86 0.612,2.604c0.408,0.744 0.952,1.312 1.632,1.704c0.68,0.392 1.42,0.588 2.22,0.588c0.816,0 1.564,-0.196 2.244,-0.588c0.68,-0.392 1.22,-0.96 1.62,-1.704c0.4,-0.744 0.6,-1.62 0.6,-2.628zm9.9506,4.608l4.08,-11.136l2.328,0l-5.16,13.152l-2.544,0l-5.16,-13.152l2.352,0l4.104,11.136zm14.34,2.232c-1.232,0 -2.348,-0.28 -3.348,-0.84c-1,-0.56 -1.784,-1.356 -2.352,-2.388c-0.568,-1.032 -0.852,-2.228 -0.852,-3.588c0,-1.344 0.292,-2.532 0.876,-3.564c0.584,-1.032 1.38,-1.824 2.388,-2.376c1.008,-0.552 2.136,-0.828 3.384,-0.828c1.248,0 2.376,0.276 3.384,0.828c1.008,0.552 1.804,1.34 2.388,2.364c0.584,1.024 0.876,2.216 0.876,3.576c0,1.36 -0.3,2.556 -0.9,3.588c-0.6,1.032 -1.412,1.828 -2.436,2.388c-1.024,0.56 -2.16,0.84 -3.408,0.84zm0,-1.92c0.784,0 1.52,-0.184 2.208,-0.552c0.688,-0.368 1.244,-0.92 1.668,-1.656c0.424,-0.736 0.636,-1.632 0.636,-2.688c0,-1.056 -0.208,-1.952 -0.624,-2.688c-0.416,-0.736 -0.96,-1.284 -1.632,-1.644c-0.672,-0.36 -1.4,-0.54 -2.184,-0.54c-0.8,0 -1.532,0.18 -2.196,0.54c-0.664,0.36 -1.196,0.908 -1.596,1.644c-0.4,0.736 -0.6,1.632 -0.6,2.688c0,1.072 0.196,1.976 0.588,2.712c0.392,0.736 0.916,1.284 1.572,1.644c0.656,0.36 1.376,0.54 2.16,0.54zm10.7254,-13.584c-0.416,0 -0.768,-0.144 -1.056,-0.432c-0.288,-0.288 -0.432,-0.64 -0.432,-1.056c0,-0.416 0.144,-0.768 0.432,-1.056c0.288,-0.288 0.64,-0.432 1.056,-0.432c0.4,0 0.74,0.144 1.02,0.432c0.28,0.288 0.42,0.64 0.42,1.056c0,0.416 -0.14,0.768 -0.42,1.056c-0.28,0.288 -0.62,0.432 -1.02,0.432zm1.056,2.136l0,13.152l-2.184,0l0,-13.152l2.184,0zm2.8333,6.552c0,-1.36 0.272,-2.548 0.816,-3.564c0.544,-1.016 1.3,-1.804 2.268,-2.364c0.968,-0.56 2.076,-0.84 3.324,-0.84c1.616,0 2.948,0.392 3.996,1.176c1.048,0.784 1.74,1.872 2.076,3.264l-2.352,0c-0.224,-0.8 -0.66,-1.432 -1.308,-1.896c-0.648,-0.464 -1.452,-0.696 -2.412,-0.696c-1.248,0 -2.256,0.428 -3.024,1.284c-0.768,0.856 -1.152,2.068 -1.152,3.636c0,1.584 0.384,2.808 1.152,3.672c0.768,0.864 1.776,1.296 3.024,1.296c0.96,0 1.76,-0.224 2.4,-0.672c0.64,-0.448 1.08,-1.088 1.32,-1.92l2.352,0c-0.352,1.344 -1.056,2.42 -2.112,3.228c-1.056,0.808 -2.376,1.212 -3.96,1.212c-1.248,0 -2.356,-0.28 -3.324,-0.84c-0.968,-0.56 -1.724,-1.352 -2.268,-2.376c-0.544,-1.024 -0.816,-2.224 -0.816,-3.6zm27.316,-0.48c0,0.416 -0.024,0.856 -0.072,1.32l-10.512,0c0.08,1.296 0.524,2.308 1.332,3.036c0.808,0.728 1.788,1.092 2.94,1.092c0.944,0 1.732,-0.22 2.364,-0.66c0.632,-0.44 1.076,-1.028 1.332,-1.764l2.352,0c-0.352,1.264 -1.056,2.292 -2.112,3.084c-1.056,0.792 -2.368,1.188 -3.936,1.188c-1.248,0 -2.364,-0.28 -3.348,-0.84c-0.984,-0.56 -1.756,-1.356 -2.316,-2.388c-0.56,-1.032 -0.84,-2.228 -0.84,-3.588c0,-1.36 0.272,-2.552 0.816,-3.576c0.544,-1.024 1.308,-1.812 2.292,-2.364c0.984,-0.552 2.116,-0.828 3.396,-0.828c1.248,0 2.352,0.272 3.312,0.816c0.96,0.544 1.7,1.292 2.22,2.244c0.52,0.952 0.78,2.028 0.78,3.228zm-2.256,-0.456c0,-0.832 -0.184,-1.548 -0.552,-2.148c-0.368,-0.6 -0.868,-1.056 -1.5,-1.368c-0.632,-0.312 -1.332,-0.468 -2.1,-0.468c-1.104,0 -2.044,0.352 -2.82,1.056c-0.776,0.704 -1.22,1.68 -1.332,2.928l8.304,0zm9.7453,7.752c-1.008,0 -1.912,-0.172 -2.712,-0.516c-0.8,-0.344 -1.432,-0.824 -1.896,-1.44c-0.464,-0.616 -0.72,-1.324 -0.768,-2.124l2.256,0c0.064,0.656 0.372,1.192 0.924,1.608c0.552,0.416 1.276,0.624 2.172,0.624c0.832,0 1.488,-0.184 1.9677,-0.552c0.48,-0.368 0.72,-0.832 0.72,-1.392c0,-0.576 -0.256,-1.004 -0.768,-1.284c-0.5117,-0.28 -1.3037,-0.556 -2.3757,-0.828c-0.976,-0.256 -1.772,-0.516 -2.388,-0.78c-0.616,-0.264 -1.144,-0.656 -1.584,-1.176c-0.44,-0.52 -0.66,-1.204 -0.66,-2.052c0,-0.672 0.2,-1.288 0.6,-1.848c0.4,-0.56 0.968,-1.004 1.704,-1.332c0.736,-0.328 1.576,-0.492 2.52,-0.492c1.456,0 2.6317,0.368 3.5277,1.104c0.896,0.736 1.376,1.744 1.44,3.024l-2.184,0c-0.048,-0.688 -0.324,-1.24 -0.828,-1.656c-0.5037,-0.416 -1.1797,-0.624 -2.0277,-0.624c-0.784,0 -1.408,0.168 -1.872,0.504c-0.464,0.336 -0.696,0.776 -0.696,1.32c0,0.432 0.14,0.788 0.42,1.068c0.28,0.28 0.632,0.504 1.056,0.672c0.424,0.168 1.012,0.356 1.764,0.564c0.944,0.256 1.7117,0.508 2.3037,0.756c0.592,0.248 1.1,0.62 1.524,1.116c0.424,0.496 0.644,1.144 0.66,1.944c0,0.72 -0.2,1.368 -0.6,1.944c-0.4,0.576 -0.964,1.028 -1.692,1.356c-0.728,0.328 -1.5637,0.492 -2.5077,0.492zm19.8437,-7.296c0,0.416 -0.024,0.856 -0.072,1.32l-10.512,0c0.08,1.296 0.524,2.308 1.332,3.036c0.808,0.728 1.788,1.092 2.94,1.092c0.944,0 1.732,-0.22 2.364,-0.66c0.632,-0.44 1.076,-1.028 1.332,-1.764l2.352,0c-0.352,1.264 -1.056,2.292 -2.112,3.084c-1.056,0.792 -2.368,1.188 -3.936,1.188c-1.248,0 -2.364,-0.28 -3.348,-0.84c-0.984,-0.56 -1.756,-1.356 -2.316,-2.388c-0.56,-1.032 -0.84,-2.228 -0.84,-3.588c0,-1.36 0.272,-2.552 0.816,-3.576c0.544,-1.024 1.308,-1.812 2.292,-2.364c0.984,-0.552 2.116,-0.828 3.396,-0.828c1.248,0 2.352,0.272 3.312,0.816c0.96,0.544 1.7,1.292 2.22,2.244c0.52,0.952 0.78,2.028 0.78,3.228zm-2.256,-0.456c0,-0.832 -0.184,-1.548 -0.552,-2.148c-0.368,-0.6 -0.868,-1.056 -1.5,-1.368c-0.632,-0.312 -1.332,-0.468 -2.1,-0.468c-1.104,0 -2.044,0.352 -2.82,1.056c-0.776,0.704 -1.22,1.68 -1.332,2.928l8.304,0zm17.09,0.456c0,0.416 -0.024,0.856 -0.072,1.32l-10.512,0c0.08,1.296 0.524,2.308 1.332,3.036c0.808,0.728 1.788,1.092 2.94,1.092c0.944,0 1.732,-0.22 2.364,-0.66c0.632,-0.44 1.076,-1.028 1.332,-1.764l2.352,0c-0.352,1.264 -1.056,2.292 -2.112,3.084c-1.056,0.792 -2.368,1.188 -3.936,1.188c-1.248,0 -2.364,-0.28 -3.348,-0.84c-0.984,-0.56 -1.756,-1.356 -2.316,-2.388c-0.56,-1.032 -0.84,-2.228 -0.84,-3.588c0,-1.36 0.272,-2.552 0.816,-3.576c0.544,-1.024 1.308,-1.812 2.292,-2.364c0.984,-0.552 2.116,-0.828 3.396,-0.828c1.248,0 2.352,0.272 3.312,0.816c0.96,0.544 1.7,1.292 2.22,2.244c0.52,0.952 0.78,2.028 0.78,3.228zm-2.256,-0.456c0,-0.832 -0.184,-1.548 -0.552,-2.148c-0.368,-0.6 -0.868,-1.056 -1.5,-1.368c-0.632,-0.312 -1.332,-0.468 -2.1,-0.468c-1.104,0 -2.044,0.352 -2.82,1.056c-0.776,0.704 -1.22,1.68 -1.332,2.928l8.304,0zm12.433,7.536l-5.16,-5.808l0,5.808l-2.184,0l0,-17.76l2.184,0l0,10.44l5.064,-5.832l3.048,0l-6.192,6.552l6.216,6.6l-2.976,0zm16.989,-7.08c0,0.416 -0.024,0.856 -0.072,1.32l-10.512,0c0.08,1.296 0.524,2.308 1.332,3.036c0.808,0.728 1.788,1.092 2.94,1.092c0.944,0 1.732,-0.22 2.364,-0.66c0.632,-0.44 1.076,-1.028 1.332,-1.764l2.352,0c-0.352,1.264 -1.056,2.292 -2.112,3.084c-1.056,0.792 -2.368,1.188 -3.936,1.188c-1.248,0 -2.364,-0.28 -3.348,-0.84c-0.984,-0.56 -1.756,-1.356 -2.316,-2.388c-0.56,-1.032 -0.84,-2.228 -0.84,-3.588c0,-1.36 0.272,-2.552 0.816,-3.576c0.544,-1.024 1.308,-1.812 2.292,-2.364c0.984,-0.552 2.116,-0.828 3.396,-0.828c1.248,0 2.352,0.272 3.312,0.816c0.96,0.544 1.7,1.292 2.22,2.244c0.52,0.952 0.78,2.028 0.78,3.228zm-2.256,-0.456c0,-0.832 -0.184,-1.548 -0.552,-2.148c-0.368,-0.6 -0.868,-1.056 -1.5,-1.368c-0.632,-0.312 -1.332,-0.468 -2.1,-0.468c-1.104,0 -2.044,0.352 -2.82,1.056c-0.776,0.704 -1.22,1.68 -1.332,2.928l8.304,0zm7.274,-3.48c0.384,-0.752 0.932,-1.336 1.644,-1.752c0.712,-0.416 1.58,-0.624 2.604,-0.624l0,2.256l-0.576,0c-2.448,0 -3.672,1.328 -3.672,3.984l0,7.152l-2.184,0l0,-13.152l2.184,0l0,2.136zm9,-6.744l0,17.76l-2.184,0l0,-17.76l2.184,0zm4.777,2.472c-0.416,0 -0.768,-0.144 -1.056,-0.432c-0.288,-0.288 -0.432,-0.64 -0.432,-1.056c0,-0.416 0.144,-0.768 0.432,-1.056c0.288,-0.288 0.64,-0.432 1.056,-0.432c0.4,0 0.74,0.144 1.02,0.432c0.28,0.288 0.42,0.64 0.42,1.056c0,0.416 -0.14,0.768 -0.42,1.056c-0.28,0.288 -0.62,0.432 -1.02,0.432zm1.056,2.136l0,13.152l-2.184,0l0,-13.152l2.184,0zm9.073,-0.216c1.136,0 2.132,0.248 2.988,0.744c0.856,0.496 1.492,1.12 1.908,1.872l0,-2.4l2.208,0l0,13.44c0,1.2 -0.256,2.268 -0.768,3.204c-0.512,0.936 -1.244,1.668 -2.196,2.196c-0.952,0.528 -2.06,0.792 -3.324,0.792c-1.728,0 -3.168,-0.408 -4.32,-1.224c-1.152,-0.816 -1.832,-1.928 -2.04,-3.336l2.16,0c0.24,0.8 0.736,1.444 1.488,1.932c0.752,0.488 1.656,0.732 2.712,0.732c1.2,0 2.18,-0.376 2.94,-1.128c0.76,-0.752 1.14,-1.808 1.14,-3.168l0,-2.76c-0.432,0.768 -1.072,1.408 -1.92,1.92c-0.848,0.512 -1.84,0.768 -2.976,0.768c-1.168,0 -2.228,-0.288 -3.18,-0.864c-0.952,-0.576 -1.7,-1.384 -2.244,-2.424c-0.544,-1.04 -0.816,-2.224 -0.816,-3.552c0,-1.344 0.272,-2.524 0.816,-3.54c0.544,-1.016 1.292,-1.804 2.244,-2.364c0.952,-0.56 2.012,-0.84 3.18,-0.84zm4.896,6.768c0,-0.992 -0.2,-1.856 -0.6,-2.592c-0.4,-0.736 -0.94,-1.3 -1.62,-1.692c-0.68,-0.392 -1.428,-0.588 -2.244,-0.588c-0.816,0 -1.56,0.192 -2.232,0.576c-0.672,0.384 -1.208,0.944 -1.608,1.68c-0.4,0.736 -0.6,1.6 -0.6,2.592c0,1.008 0.2,1.884 0.6,2.628c0.4,0.744 0.936,1.312 1.608,1.704c0.672,0.392 1.416,0.588 2.232,0.588c0.816,0 1.564,-0.196 2.244,-0.588c0.68,-0.392 1.22,-0.96 1.62,-1.704c0.4,-0.744 0.6,-1.612 0.6,-2.604zm12.375,-6.792c0.992,0 1.888,0.212 2.688,0.636c0.8,0.424 1.428,1.06 1.884,1.908c0.456,0.848 0.684,1.88 0.684,3.096l0,7.752l-2.16,0l0,-7.44c0,-1.312 -0.328,-2.316 -0.984,-3.012c-0.656,-0.696 -1.552,-1.044 -2.688,-1.044c-1.152,0 -2.068,0.36 -2.748,1.08c-0.68,0.72 -1.02,1.768 -1.02,3.144l0,7.272l-2.184,0l0,-17.76l2.184,0l0,6.48c0.432,-0.672 1.028,-1.192 1.788,-1.56c0.76,-0.368 1.612,-0.552 2.556,-0.552zm11.469,2.04l0,7.752c0,0.64 0.136,1.092 0.408,1.356c0.272,0.264 0.744,0.396 1.416,0.396l1.608,0l0,1.848l-1.968,0c-1.216,0 -2.128,-0.28 -2.736,-0.84c-0.608,-0.56 -0.912,-1.48 -0.912,-2.76l0,-7.752l-1.704,0l0,-1.8l1.704,0l0,-3.312l2.184,0l0,3.312l3.432,0l0,1.8l-3.432,0z" fill="#FFFFFF" id="svg_21"/>
    </g>
   </g>
   <text fill="#FFFFFF" font-family="Poppins,Poppins_MSFontService,sans-serif" font-weight="400" font-size="24" y="110" x="275.70499" id="svg_22">libvoiceseekerlight</text>
   <path d="m246.5,181.333c0,-7.087 5.746,-12.833 12.833,-12.833l259.334,0c7.087,0 12.833,5.746 12.833,12.833l0,51.334c0,7.087 -5.746,12.833 -12.833,12.833l-259.334,0c-7.087,0 -12.833,-5.746 -12.833,-12.833l0,-51.334z" stroke="#0EAFE0" stroke-width="1.33333" stroke-miterlimit="8" fill="#0EAFE0" fill-rule="evenodd" id="svg_23"/>
   <g clip-path="url(#clip16)" filter="url(#fx1)" id="svg_24">
    <g id="svg_25">
     <path d="m358.7346,215l-2.184,0l-8.784,-13.32l0,13.32l-2.184,0l0,-16.752l2.184,0l8.784,13.296l0,-13.296l2.184,0l0,16.752zm10.5213,-8.352l5.136,8.352l-2.472,0l-4.008,-6.528l-3.816,6.528l-2.424,0l5.112,-8.352l-5.136,-8.376l2.448,0l4.032,6.552l3.84,-6.552l2.448,0l-5.16,8.376zm19.1774,-3.48c0,1.392 -0.476,2.548 -1.428,3.468c-0.952,0.92 -2.404,1.38 -4.356,1.38l-3.216,0l0,6.984l-2.184,0l0,-16.728l5.4,0c1.888,0 3.324,0.456 4.308,1.368c0.984,0.912 1.476,2.088 1.476,3.528zm-5.784,3.048c1.216,0 2.112,-0.264 2.688,-0.792c0.576,-0.528 0.864,-1.28 0.864,-2.256c0,-2.064 -1.184,-3.096 -3.552,-3.096l-3.216,0l0,6.144l3.216,0zm24.6546,5.064l-7.296,0l-1.344,3.72l-2.304,0l6.048,-16.632l2.52,0l6.024,16.632l-2.304,0l-1.344,-3.72zm-0.624,-1.776l-3.024,-8.448l-3.024,8.448l6.048,0zm16.3587,-11.232l0,1.776l-7.272,0l0,5.64l5.904,0l0,1.776l-5.904,0l0,7.536l-2.184,0l0,-16.728l9.456,0zm4.8947,1.776l0,5.592l6.096,0l0,1.8l-6.096,0l0,5.76l6.816,0l0,1.8l-9,0l0,-16.752l9,0l0,1.8l-6.816,0z" fill="#FFFFFF" id="svg_26"/>
    </g>
   </g>
   <text fill="#FFFFFF" font-family="Poppins,Poppins_MSFontService,sans-serif" font-weight="400" font-size="24" y="214" x="342.54999" id="svg_27">NXP AFE</text>
   <path d="m246.5,373.333c0,-7.087 5.746,-12.833 12.833,-12.833l259.334,0c7.087,0 12.833,5.746 12.833,12.833l0,51.334c0,7.087 -5.746,12.833 -12.833,12.833l-259.334,0c-7.087,0 -12.833,-5.746 -12.833,-12.833l0,-51.334z" stroke="#0EAFE0" stroke-width="1.33333" stroke-miterlimit="8" fill="#0EAFE0" fill-rule="evenodd" id="svg_28"/>
   <g clip-path="url(#clip17)" filter="url(#fx2)" id="svg_29">
    <g id="svg_30">
     <path d="m330.74,390.272l-6.312,16.728l-2.52,0l-6.312,-16.728l2.328,0l5.256,14.424l5.256,-14.424l2.304,0zm8.0787,16.944c-1.232,0 -2.348,-0.28 -3.348,-0.84c-1,-0.56 -1.784,-1.356 -2.352,-2.388c-0.568,-1.032 -0.852,-2.228 -0.852,-3.588c0,-1.344 0.292,-2.532 0.876,-3.564c0.584,-1.032 1.38,-1.824 2.388,-2.376c1.008,-0.552 2.136,-0.828 3.384,-0.828c1.248,0 2.376,0.276 3.384,0.828c1.008,0.552 1.804,1.34 2.388,2.364c0.584,1.024 0.876,2.216 0.876,3.576c0,1.36 -0.3,2.556 -0.9,3.588c-0.6,1.032 -1.412,1.828 -2.436,2.388c-1.024,0.56 -2.16,0.84 -3.408,0.84zm0,-1.92c0.784,0 1.52,-0.184 2.208,-0.552c0.688,-0.368 1.244,-0.92 1.668,-1.656c0.424,-0.736 0.636,-1.632 0.636,-2.688c0,-1.056 -0.208,-1.952 -0.624,-2.688c-0.416,-0.736 -0.96,-1.284 -1.632,-1.644c-0.672,-0.36 -1.4,-0.54 -2.184,-0.54c-0.8,0 -1.532,0.18 -2.196,0.54c-0.664,0.36 -1.196,0.908 -1.596,1.644c-0.4,0.736 -0.6,1.632 -0.6,2.688c0,1.072 0.196,1.976 0.588,2.712c0.392,0.736 0.916,1.284 1.572,1.644c0.656,0.36 1.376,0.54 2.16,0.54zm10.7253,-13.584c-0.416,0 -0.768,-0.144 -1.056,-0.432c-0.288,-0.288 -0.432,-0.64 -0.432,-1.056c0,-0.416 0.144,-0.768 0.432,-1.056c0.288,-0.288 0.64,-0.432 1.056,-0.432c0.4,0 0.74,0.144 1.02,0.432c0.28,0.288 0.42,0.64 0.42,1.056c0,0.416 -0.14,0.768 -0.42,1.056c-0.28,0.288 -0.62,0.432 -1.02,0.432zm1.056,2.136l0,13.152l-2.184,0l0,-13.152l2.184,0zm2.8333,6.552c0,-1.36 0.272,-2.548 0.816,-3.564c0.544,-1.016 1.3,-1.804 2.268,-2.364c0.968,-0.56 2.076,-0.84 3.324,-0.84c1.616,0 2.948,0.392 3.996,1.176c1.048,0.784 1.74,1.872 2.076,3.264l-2.352,0c-0.224,-0.8 -0.66,-1.432 -1.308,-1.896c-0.648,-0.464 -1.452,-0.696 -2.412,-0.696c-1.248,0 -2.256,0.428 -3.024,1.284c-0.768,0.856 -1.152,2.068 -1.152,3.636c0,1.584 0.384,2.808 1.152,3.672c0.768,0.864 1.776,1.296 3.024,1.296c0.96,0 1.76,-0.224 2.4,-0.672c0.64,-0.448 1.08,-1.088 1.32,-1.92l2.352,0c-0.352,1.344 -1.056,2.42 -2.112,3.228c-1.056,0.808 -2.376,1.212 -3.96,1.212c-1.248,0 -2.356,-0.28 -3.324,-0.84c-0.968,-0.56 -1.724,-1.352 -2.268,-2.376c-0.544,-1.024 -0.816,-2.224 -0.816,-3.6zm27.316,-0.48c0,0.416 -0.024,0.856 -0.072,1.32l-10.512,0c0.08,1.296 0.524,2.308 1.332,3.036c0.808,0.728 1.788,1.092 2.94,1.092c0.944,0 1.732,-0.22 2.364,-0.66c0.632,-0.44 1.076,-1.028 1.332,-1.764l2.352,0c-0.352,1.264 -1.056,2.292 -2.112,3.084c-1.056,0.792 -2.368,1.188 -3.936,1.188c-1.248,0 -2.364,-0.28 -3.348,-0.84c-0.984,-0.56 -1.756,-1.356 -2.316,-2.388c-0.56,-1.032 -0.84,-2.228 -0.84,-3.588c0,-1.36 0.272,-2.552 0.816,-3.576c0.544,-1.024 1.308,-1.812 2.292,-2.364c0.984,-0.552 2.116,-0.828 3.396,-0.828c1.248,0 2.352,0.272 3.312,0.816c0.96,0.544 1.7,1.292 2.22,2.244c0.52,0.952 0.78,2.028 0.78,3.228zm-2.256,-0.456c0,-0.832 -0.184,-1.548 -0.552,-2.148c-0.368,-0.6 -0.868,-1.056 -1.5,-1.368c-0.632,-0.312 -1.332,-0.468 -2.1,-0.468c-1.104,0 -2.044,0.352 -2.82,1.056c-0.776,0.704 -1.22,1.68 -1.332,2.928l8.304,0zm13.5587,-9.192l0,10.584c0,1.488 0.364,2.592 1.092,3.312c0.728,0.72 1.74,1.08 3.036,1.08c1.28,0 2.284,-0.36 3.012,-1.08c0.728,-0.72 1.092,-1.824 1.092,-3.312l0,-10.584l2.184,0l0,10.56c0,1.392 -0.28,2.564 -0.84,3.516c-0.56,0.952 -1.316,1.66 -2.268,2.124c-0.952,0.464 -2.02,0.696 -3.204,0.696c-1.184,0 -2.252,-0.232 -3.204,-0.696c-0.952,-0.464 -1.704,-1.172 -2.256,-2.124c-0.552,-0.952 -0.828,-2.124 -0.828,-3.516l0,-10.56l2.184,0zm16.2147,0l0,16.728l-2.184,0l0,-16.728l2.184,0zm19.8703,13.008l-7.296,0l-1.344,3.72l-2.304,0l6.048,-16.632l2.52,0l6.024,16.632l-2.304,0l-1.344,-3.72zm-0.624,-1.776l-3.024,-8.448l-3.024,8.448l6.048,0zm9.087,-5.232c0.432,-0.752 1.076,-1.38 1.932,-1.884c0.856,-0.504 1.852,-0.756 2.988,-0.756c1.168,0 2.228,0.28 3.18,0.84c0.952,0.56 1.7,1.348 2.244,2.364c0.544,1.016 0.816,2.196 0.816,3.54c0,1.328 -0.272,2.512 -0.816,3.552c-0.544,1.04 -1.292,1.848 -2.244,2.424c-0.952,0.576 -2.012,0.864 -3.18,0.864c-1.12,0 -2.108,-0.252 -2.964,-0.756c-0.856,-0.504 -1.508,-1.132 -1.956,-1.884l0,8.664l-2.184,0l0,-19.392l2.184,0l0,2.424zm8.928,4.104c0,-0.992 -0.2,-1.856 -0.6,-2.592c-0.4,-0.736 -0.94,-1.296 -1.62,-1.68c-0.68,-0.384 -1.428,-0.576 -2.244,-0.576c-0.8,0 -1.54,0.196 -2.22,0.588c-0.68,0.392 -1.224,0.96 -1.632,1.704c-0.408,0.744 -0.612,1.604 -0.612,2.58c0,0.992 0.204,1.86 0.612,2.604c0.408,0.744 0.952,1.312 1.632,1.704c0.68,0.392 1.42,0.588 2.22,0.588c0.816,0 1.564,-0.196 2.244,-0.588c0.68,-0.392 1.22,-0.96 1.62,-1.704c0.4,-0.744 0.6,-1.62 0.6,-2.628zm7.239,-4.104c0.432,-0.752 1.076,-1.38 1.932,-1.884c0.856,-0.504 1.852,-0.756 2.988,-0.756c1.168,0 2.228,0.28 3.18,0.84c0.952,0.56 1.7,1.348 2.244,2.364c0.544,1.016 0.816,2.196 0.816,3.54c0,1.328 -0.272,2.512 -0.816,3.552c-0.544,1.04 -1.292,1.848 -2.244,2.424c-0.952,0.576 -2.012,0.864 -3.18,0.864c-1.12,0 -2.108,-0.252 -2.964,-0.756c-0.856,-0.504 -1.508,-1.132 -1.956,-1.884l0,8.664l-2.184,0l0,-19.392l2.184,0l0,2.424zm8.928,4.104c0,-0.992 -0.2,-1.856 -0.6,-2.592c-0.4,-0.736 -0.94,-1.296 -1.62,-1.68c-0.68,-0.384 -1.428,-0.576 -2.244,-0.576c-0.8,0 -1.54,0.196 -2.22,0.588c-0.68,0.392 -1.224,0.96 -1.632,1.704c-0.408,0.744 -0.612,1.604 -0.612,2.58c0,0.992 0.204,1.86 0.612,2.604c0.408,0.744 0.952,1.312 1.632,1.704c0.68,0.392 1.42,0.588 2.22,0.588c0.816,0 1.564,-0.196 2.244,-0.588c0.68,-0.392 1.22,-0.96 1.62,-1.704c0.4,-0.744 0.6,-1.62 0.6,-2.628z" fill="#FFFFFF" id="svg_31"/>
    </g>
   </g>
   <text fill="#FFFFFF" font-family="Poppins,Poppins_MSFontService,sans-serif" font-weight="400" font-size="24" y="406" x="313.883" id="svg_32">Voice UI App</text>
   <path d="m246.5,483.333c0,-7.087 5.746,-12.833 12.833,-12.833l259.334,0c7.087,0 12.833,5.746 12.833,12.833l0,51.334c0,7.087 -5.746,12.833 -12.833,12.833l-259.334,0c-7.087,0 -12.833,-5.746 -12.833,-12.833l0,-51.334z" stroke="#69CA00" stroke-width="1.33333" stroke-miterlimit="8" fill="#69CA00" fill-rule="evenodd" id="svg_33"/>
   <g clip-path="url(#clip18)" filter="url(#fx3)" id="svg_34">
    <g id="svg_35">
     <path d="m388.1566,500.272l-6.312,16.728l-2.52,0l-6.312,-16.728l2.328,0l5.256,14.424l5.256,-14.424l2.304,0zm4.5267,0l0,16.728l-2.184,0l0,-16.728l2.184,0zm13.9453,0l0,1.776l-4.56,0l0,14.952l-2.184,0l0,-14.952l-4.584,0l0,-1.776l11.328,0z" fill="#FFFFFF" id="svg_36"/>
    </g>
   </g>
   <text fill="#FFFFFF" font-family="Poppins,Poppins_MSFontService,sans-serif" font-weight="400" font-size="24" y="516" x="371.29999" id="svg_37">VIT</text>
   <path d="m596.5,319.167c0,-6.996 5.671,-12.667 12.667,-12.667l259.666,0c6.996,0 12.667,5.671 12.667,12.667l0,50.666c0,6.996 -5.671,12.667 -12.667,12.667l-259.666,0c-6.996,0 -12.667,-5.671 -12.667,-12.667l0,-50.666z" stroke="#F9B500" stroke-width="1.33333" stroke-miterlimit="8" fill="#F9B500" fill-rule="evenodd" id="svg_38"/>
   <rect x="611.5" y="310.5" width="255" height="68" stroke="#F9B500" stroke-linejoin="round" stroke-miterlimit="10" fill="#F9B500" id="svg_39"/>
   <g clip-path="url(#clip19)" filter="url(#fx4)" id="svg_40">
    <g id="svg_41">
     <path d="m693.5774,321.272l-4.848,16.728l-2.448,0l-3.888,-13.464l-4.032,13.464l-2.424,0.024l-4.68,-16.752l2.328,0l3.648,14.184l4.032,-14.184l2.448,0l3.84,14.136l3.672,-14.136l2.352,0zm1.66,10.104c0,-1.344 0.272,-2.524 0.816,-3.54c0.544,-1.016 1.292,-1.804 2.244,-2.364c0.952,-0.56 2.012,-0.84 3.18,-0.84c1.152,0 2.152,0.248 3,0.744c0.848,0.496 1.48,1.12 1.896,1.872l0,-2.4l2.208,0l0,13.152l-2.208,0l0,-2.448c-0.432,0.768 -1.076,1.404 -1.932,1.908c-0.856,0.504 -1.852,0.756 -2.988,0.756c-1.168,0 -2.224,-0.288 -3.168,-0.864c-0.944,-0.576 -1.688,-1.384 -2.232,-2.424c-0.544,-1.04 -0.816,-2.224 -0.816,-3.552zm11.136,0.024c0,-0.992 -0.2,-1.856 -0.6,-2.592c-0.4,-0.736 -0.94,-1.3 -1.62,-1.692c-0.68,-0.392 -1.428,-0.588 -2.244,-0.588c-0.816,0 -1.56,0.192 -2.232,0.576c-0.672,0.384 -1.208,0.944 -1.608,1.68c-0.4,0.736 -0.6,1.6 -0.6,2.592c0,1.008 0.2,1.884 0.6,2.628c0.4,0.744 0.936,1.312 1.608,1.704c0.672,0.392 1.416,0.588 2.232,0.588c0.816,0 1.564,-0.196 2.244,-0.588c0.68,-0.392 1.22,-0.96 1.62,-1.704c0.4,-0.744 0.6,-1.612 0.6,-2.604zm13.1907,6.6l-5.16,-5.808l0,5.808l-2.184,0l0,-17.76l2.184,0l0,10.44l5.064,-5.832l3.048,0l-6.192,6.552l6.216,6.6l-2.976,0zm16.9893,-7.08c0,0.416 -0.024,0.856 -0.072,1.32l-10.512,0c0.08,1.296 0.524,2.308 1.332,3.036c0.808,0.728 1.788,1.092 2.94,1.092c0.944,0 1.732,-0.22 2.364,-0.66c0.632,-0.44 1.076,-1.028 1.332,-1.764l2.352,0c-0.352,1.264 -1.056,2.292 -2.112,3.084c-1.056,0.792 -2.368,1.188 -3.936,1.188c-1.248,0 -2.364,-0.28 -3.348,-0.84c-0.984,-0.56 -1.756,-1.356 -2.316,-2.388c-0.56,-1.032 -0.84,-2.228 -0.84,-3.588c0,-1.36 0.272,-2.552 0.816,-3.576c0.544,-1.024 1.308,-1.812 2.292,-2.364c0.984,-0.552 2.116,-0.828 3.396,-0.828c1.248,0 2.352,0.272 3.312,0.816c0.96,0.544 1.7,1.292 2.22,2.244c0.52,0.952 0.78,2.028 0.78,3.228zm-2.256,-0.456c0,-0.832 -0.184,-1.548 -0.552,-2.148c-0.368,-0.6 -0.868,-1.056 -1.5,-1.368c-0.632,-0.312 -1.332,-0.468 -2.1,-0.468c-1.104,0 -2.044,0.352 -2.82,1.056c-0.776,0.704 -1.22,1.68 -1.332,2.928l8.304,0zm32.4467,-9.192l-4.848,16.728l-2.448,0l-3.888,-13.464l-4.032,13.464l-2.424,0.024l-4.68,-16.752l2.328,0l3.648,14.184l4.032,-14.184l2.448,0l3.84,14.136l3.672,-14.136l2.352,0zm8.2123,16.944c-1.232,0 -2.348,-0.28 -3.348,-0.84c-1.0003,-0.56 -1.7843,-1.356 -2.3523,-2.388c-0.568,-1.032 -0.852,-2.228 -0.852,-3.588c0,-1.344 0.292,-2.532 0.876,-3.564c0.584,-1.032 1.38,-1.824 2.3883,-2.376c1.008,-0.552 2.136,-0.828 3.384,-0.828c1.248,0 2.376,0.276 3.384,0.828c1.008,0.552 1.804,1.34 2.388,2.364c0.584,1.024 0.876,2.216 0.876,3.576c0,1.36 -0.3,2.556 -0.9,3.588c-0.6,1.032 -1.412,1.828 -2.436,2.388c-1.024,0.56 -2.16,0.84 -3.408,0.84zm0,-1.92c0.784,0 1.52,-0.184 2.208,-0.552c0.688,-0.368 1.244,-0.92 1.668,-1.656c0.424,-0.736 0.636,-1.632 0.636,-2.688c0,-1.056 -0.208,-1.952 -0.624,-2.688c-0.416,-0.736 -0.96,-1.284 -1.632,-1.644c-0.672,-0.36 -1.4,-0.54 -2.184,-0.54c-0.8,0 -1.532,0.18 -2.196,0.54c-0.664,0.36 -1.196,0.908 -1.596,1.644c-0.4,0.736 -0.6003,1.632 -0.6003,2.688c0,1.072 0.1963,1.976 0.5883,2.712c0.392,0.736 0.916,1.284 1.572,1.644c0.656,0.36 1.376,0.54 2.16,0.54zm11.781,-9.312c0.384,-0.752 0.932,-1.336 1.644,-1.752c0.712,-0.416 1.58,-0.624 2.604,-0.624l0,2.256l-0.576,0c-2.448,0 -3.672,1.328 -3.672,3.984l0,7.152l-2.184,0l0,-13.152l2.184,0l0,2.136zm6,4.392c0,-1.344 0.272,-2.524 0.816,-3.54c0.544,-1.016 1.292,-1.804 2.244,-2.364c0.952,-0.56 2.02,-0.84 3.204,-0.84c1.024,0 1.976,0.236 2.856,0.708c0.88,0.472 1.552,1.092 2.016,1.86l0,-6.96l2.208,0l0,17.76l-2.208,0l0,-2.472c-0.432,0.784 -1.072,1.428 -1.92,1.932c-0.848,0.504 -1.84,0.756 -2.976,0.756c-1.168,0 -2.228,-0.288 -3.18,-0.864c-0.952,-0.576 -1.7,-1.384 -2.244,-2.424c-0.544,-1.04 -0.816,-2.224 -0.816,-3.552zm11.136,0.024c0,-0.992 -0.2,-1.856 -0.6,-2.592c-0.4,-0.736 -0.94,-1.3 -1.62,-1.692c-0.68,-0.392 -1.428,-0.588 -2.244,-0.588c-0.816,0 -1.56,0.192 -2.232,0.576c-0.672,0.384 -1.208,0.944 -1.608,1.68c-0.4,0.736 -0.6,1.6 -0.6,2.592c0,1.008 0.2,1.884 0.6,2.628c0.4,0.744 0.936,1.312 1.608,1.704c0.672,0.392 1.416,0.588 2.232,0.588c0.816,0 1.564,-0.196 2.244,-0.588c0.68,-0.392 1.22,-0.96 1.62,-1.704c0.4,-0.744 0.6,-1.612 0.6,-2.604z" fill="#FFFFFF" id="svg_42"/>
    </g>
   </g>
   <text fill="#FFFFFF" font-family="Poppins,Poppins_MSFontService,sans-serif" font-weight="400" font-size="24" y="337" x="669.521" id="svg_43">Wake Word</text>
   <g clip-path="url(#clip20)" filter="url(#fx5)" id="svg_44">
    <g id="svg_45">
     <path d="m682.9588,367l-2.184,0l-8.784,-13.32l0,13.32l-2.184,0l0,-16.752l2.184,0l8.784,13.296l0,-13.296l2.184,0l0,16.752zm9.4173,0.216c-1.232,0 -2.348,-0.28 -3.348,-0.84c-1,-0.56 -1.784,-1.356 -2.352,-2.388c-0.568,-1.032 -0.852,-2.228 -0.852,-3.588c0,-1.344 0.292,-2.532 0.876,-3.564c0.584,-1.032 1.38,-1.824 2.388,-2.376c1.008,-0.552 2.136,-0.828 3.384,-0.828c1.248,0 2.376,0.276 3.384,0.828c1.008,0.552 1.804,1.34 2.388,2.364c0.584,1.024 0.876,2.216 0.876,3.576c0,1.36 -0.3,2.556 -0.9,3.588c-0.6,1.032 -1.412,1.828 -2.436,2.388c-1.024,0.56 -2.16,0.84 -3.408,0.84zm0,-1.92c0.784,0 1.52,-0.184 2.208,-0.552c0.688,-0.368 1.244,-0.92 1.668,-1.656c0.424,-0.736 0.636,-1.632 0.636,-2.688c0,-1.056 -0.208,-1.952 -0.624,-2.688c-0.416,-0.736 -0.96,-1.284 -1.632,-1.644c-0.672,-0.36 -1.4,-0.54 -2.184,-0.54c-0.8,0 -1.532,0.18 -2.196,0.54c-0.664,0.36 -1.196,0.908 -1.596,1.644c-0.4,0.736 -0.6,1.632 -0.6,2.688c0,1.072 0.196,1.976 0.588,2.712c0.392,0.736 0.916,1.284 1.572,1.644c0.656,0.36 1.376,0.54 2.16,0.54zm12.2614,-9.648l0,7.752c0,0.64 0.136,1.092 0.408,1.356c0.272,0.264 0.744,0.396 1.416,0.396l1.608,0l0,1.848l-1.968,0c-1.216,0 -2.128,-0.28 -2.736,-0.84c-0.608,-0.56 -0.912,-1.48 -0.912,-2.76l0,-7.752l-1.704,0l0,-1.8l1.704,0l0,-3.312l2.184,0l0,3.312l3.432,0l0,1.8l-3.432,0zm7.1306,-3.936c-0.416,0 -0.768,-0.144 -1.056,-0.432c-0.288,-0.288 -0.432,-0.64 -0.432,-1.056c0,-0.416 0.144,-0.768 0.432,-1.056c0.288,-0.288 0.64,-0.432 1.056,-0.432c0.4,0 0.74,0.144 1.02,0.432c0.28,0.288 0.42,0.64 0.42,1.056c0,0.416 -0.14,0.768 -0.42,1.056c-0.28,0.288 -0.62,0.432 -1.02,0.432zm1.056,2.136l0,13.152l-2.184,0l0,-13.152l2.184,0zm9.0014,1.8l-2.76,0l0,11.352l-2.184,0l0,-11.352l-1.704,0l0,-1.8l1.704,0l0,-0.936c0,-1.472 0.38,-2.548 1.14,-3.228c0.76,-0.68 1.98,-1.02 3.66,-1.02l0,1.824c-0.96,0 -1.636,0.188 -2.028,0.564c-0.392,0.376 -0.588,0.996 -0.588,1.86l0,0.936l2.76,0l0,1.8zm13.8093,-1.8l-7.92,19.344l-2.256,0l2.592,-6.336l-5.304,-13.008l2.424,0l4.128,10.656l4.08,-10.656l2.256,0zm13.8093,13.32c-1.104,0 -2.092,-0.196 -2.964,-0.588c-0.872,-0.392 -1.556,-0.936 -2.052,-1.632c-0.496,-0.696 -0.752,-1.5 -0.768,-2.412l2.328,0c0.08,0.784 0.404,1.444 0.972,1.98c0.568,0.536 1.396,0.804 2.484,0.804c1.04,0 1.86,-0.26 2.46,-0.78c0.6,-0.52 0.9,-1.188 0.9,-2.004c0,-0.64 -0.176,-1.16 -0.528,-1.56c-0.352,-0.4 -0.792,-0.704 -1.32,-0.912c-0.528,-0.208 -1.24,-0.432 -2.136,-0.672c-1.104,-0.288 -1.988,-0.576 -2.652,-0.864c-0.664,-0.288 -1.232,-0.74 -1.704,-1.356c-0.472,-0.616 -0.708,-1.444 -0.708,-2.484c0,-0.912 0.232,-1.72 0.696,-2.424c0.464,-0.704 1.116,-1.248 1.956,-1.632c0.84,-0.384 1.804,-0.576 2.892,-0.576c1.568,0 2.852,0.392 3.852,1.176c1,0.784 1.564,1.824 1.692,3.12l-2.4,0c-0.08,-0.64 -0.416,-1.204 -1.008,-1.692c-0.592,-0.488 -1.376,-0.732 -2.352,-0.732c-0.912,0 -1.656,0.236 -2.232,0.708c-0.576,0.472 -0.864,1.132 -0.864,1.98c0,0.608 0.172,1.104 0.516,1.488c0.344,0.384 0.768,0.676 1.272,0.876c0.504,0.2 1.212,0.428 2.124,0.684c1.104,0.304 1.992,0.604 2.664,0.9c0.672,0.296 1.248,0.752 1.728,1.368c0.48,0.616 0.72,1.452 0.72,2.508c0,0.816 -0.216,1.584 -0.648,2.304c-0.432,0.72 -1.072,1.304 -1.92,1.752c-0.848,0.448 -1.848,0.672 -3,0.672zm8.0467,-6.768c0,-1.36 0.272,-2.548 0.816,-3.564c0.544,-1.016 1.3,-1.804 2.268,-2.364c0.968,-0.56 2.076,-0.84 3.324,-0.84c1.616,0 2.948,0.392 3.996,1.176c1.048,0.784 1.74,1.872 2.076,3.264l-2.352,0c-0.224,-0.8 -0.66,-1.432 -1.308,-1.896c-0.648,-0.464 -1.452,-0.696 -2.412,-0.696c-1.248,0 -2.256,0.428 -3.024,1.284c-0.768,0.856 -1.152,2.068 -1.152,3.636c0,1.584 0.384,2.808 1.152,3.672c0.768,0.864 1.776,1.296 3.024,1.296c0.96,0 1.76,-0.224 2.4,-0.672c0.64,-0.448 1.08,-1.088 1.32,-1.92l2.352,0c-0.352,1.344 -1.056,2.42 -2.112,3.228c-1.056,0.808 -2.376,1.212 -3.96,1.212c-1.248,0 -2.356,-0.28 -3.324,-0.84c-0.968,-0.56 -1.724,-1.352 -2.268,-2.376c-0.544,-1.024 -0.816,-2.224 -0.816,-3.6zm17.5,-4.416c0.384,-0.752 0.932,-1.336 1.644,-1.752c0.712,-0.416 1.58,-0.624 2.604,-0.624l0,2.256l-0.576,0c-2.448,0 -3.672,1.328 -3.672,3.984l0,7.152l-2.184,0l0,-13.152l2.184,0l0,2.136zm7.944,-4.272c-0.416,0 -0.768,-0.144 -1.056,-0.432c-0.288,-0.288 -0.432,-0.64 -0.432,-1.056c0,-0.416 0.144,-0.768 0.432,-1.056c0.288,-0.288 0.64,-0.432 1.056,-0.432c0.4,0 0.74,0.144 1.02,0.432c0.28,0.288 0.42,0.64 0.42,1.056c0,0.416 -0.14,0.768 -0.42,1.056c-0.28,0.288 -0.62,0.432 -1.02,0.432zm1.056,2.136l0,13.152l-2.184,0l0,-13.152l2.184,0zm5.833,2.424c0.432,-0.752 1.076,-1.38 1.932,-1.884c0.856,-0.504 1.852,-0.756 2.988,-0.756c1.168,0 2.228,0.28 3.18,0.84c0.952,0.56 1.7,1.348 2.244,2.364c0.544,1.016 0.816,2.196 0.816,3.54c0,1.328 -0.272,2.512 -0.816,3.552c-0.544,1.04 -1.292,1.848 -2.244,2.424c-0.952,0.576 -2.012,0.864 -3.18,0.864c-1.12,0 -2.108,-0.252 -2.964,-0.756c-0.856,-0.504 -1.508,-1.132 -1.956,-1.884l0,8.664l-2.184,0l0,-19.392l2.184,0l0,2.424zm8.928,4.104c0,-0.992 -0.2,-1.856 -0.6,-2.592c-0.4,-0.736 -0.94,-1.296 -1.62,-1.68c-0.68,-0.384 -1.428,-0.576 -2.244,-0.576c-0.8,0 -1.54,0.196 -2.22,0.588c-0.68,0.392 -1.224,0.96 -1.632,1.704c-0.408,0.744 -0.612,1.604 -0.612,2.58c0,0.992 0.204,1.86 0.612,2.604c0.408,0.744 0.952,1.312 1.632,1.704c0.68,0.392 1.42,0.588 2.22,0.588c0.816,0 1.564,-0.196 2.244,-0.588c0.68,-0.392 1.22,-0.96 1.62,-1.704c0.4,-0.744 0.6,-1.62 0.6,-2.628zm7.719,-4.728l0,7.752c0,0.64 0.136,1.092 0.408,1.356c0.272,0.264 0.744,0.396 1.416,0.396l1.608,0l0,1.848l-1.968,0c-1.216,0 -2.128,-0.28 -2.736,-0.84c-0.608,-0.56 -0.912,-1.48 -0.912,-2.76l0,-7.752l-1.704,0l0,-1.8l1.704,0l0,-3.312l2.184,0l0,3.312l3.432,0l0,1.8l-3.432,0z" fill="#FFFFFF" id="svg_46"/>
    </g>
   </g>
   <text fill="#FFFFFF" font-family="Poppins,Poppins_MSFontService,sans-serif" font-weight="400" font-size="24" y="366" x="666.77399" id="svg_47">Notify Script</text>
   <path d="m596.5,434.167c0,-6.996 5.671,-12.667 12.667,-12.667l259.666,0c6.996,0 12.667,5.671 12.667,12.667l0,50.666c0,6.996 -5.671,12.667 -12.667,12.667l-259.666,0c-6.996,0 -12.667,-5.671 -12.667,-12.667l0,-50.666z" stroke="#F9B500" stroke-width="1.33333" stroke-miterlimit="8" fill="#F9B500" fill-rule="evenodd" id="svg_48"/>
   <rect x="611.5" y="425.5" width="255" height="68" stroke="#F9B500" stroke-linejoin="round" stroke-miterlimit="10" fill="#F9B500" id="svg_49"/>
   <g clip-path="url(#clip21)" filter="url(#fx6)" id="svg_50">
    <g id="svg_51">
     <path d="m674.9041,444.624c0,-1.632 0.368,-3.1 1.104,-4.404c0.736,-1.304 1.74,-2.324 3.012,-3.06c1.272,-0.736 2.684,-1.104 4.236,-1.104c1.824,0 3.416,0.44 4.776,1.32c1.36,0.88 2.352,2.128 2.976,3.744l-2.616,0c-0.464,-1.008 -1.132,-1.784 -2.004,-2.328c-0.872,-0.544 -1.916,-0.816 -3.132,-0.816c-1.168,0 -2.216,0.272 -3.144,0.816c-0.928,0.544 -1.656,1.316 -2.184,2.316c-0.528,1 -0.792,2.172 -0.792,3.516c0,1.328 0.264,2.492 0.792,3.492c0.528,1 1.256,1.772 2.184,2.316c0.928,0.544 1.976,0.816 3.144,0.816c1.216,0 2.26,-0.268 3.132,-0.804c0.872,-0.536 1.54,-1.308 2.004,-2.316l2.616,0c-0.624,1.6 -1.616,2.836 -2.976,3.708c-1.36,0.872 -2.952,1.308 -4.776,1.308c-1.552,0 -2.964,-0.364 -4.236,-1.092c-1.272,-0.728 -2.276,-1.74 -3.012,-3.036c-0.736,-1.296 -1.104,-2.76 -1.104,-4.392zm25.052,8.592c-1.232,0 -2.348,-0.28 -3.348,-0.84c-1,-0.56 -1.784,-1.356 -2.352,-2.388c-0.568,-1.032 -0.852,-2.228 -0.852,-3.588c0,-1.344 0.292,-2.532 0.876,-3.564c0.584,-1.032 1.38,-1.824 2.388,-2.376c1.008,-0.552 2.136,-0.828 3.384,-0.828c1.248,0 2.376,0.276 3.384,0.828c1.008,0.552 1.804,1.34 2.388,2.364c0.584,1.024 0.876,2.216 0.876,3.576c0,1.36 -0.3,2.556 -0.9,3.588c-0.6,1.032 -1.412,1.828 -2.436,2.388c-1.024,0.56 -2.16,0.84 -3.408,0.84zm0,-1.92c0.784,0 1.52,-0.184 2.208,-0.552c0.688,-0.368 1.244,-0.92 1.668,-1.656c0.424,-0.736 0.636,-1.632 0.636,-2.688c0,-1.056 -0.208,-1.952 -0.624,-2.688c-0.416,-0.736 -0.96,-1.284 -1.632,-1.644c-0.672,-0.36 -1.4,-0.54 -2.184,-0.54c-0.8,0 -1.532,0.18 -2.196,0.54c-0.664,0.36 -1.196,0.908 -1.596,1.644c-0.4,0.736 -0.6,1.632 -0.6,2.688c0,1.072 0.196,1.976 0.588,2.712c0.392,0.736 0.916,1.284 1.572,1.644c0.656,0.36 1.376,0.54 2.16,0.54zm25.4133,-11.688c1.024,0 1.936,0.212 2.736,0.636c0.8,0.424 1.432,1.06 1.896,1.908c0.464,0.848 0.696,1.88 0.696,3.096l0,7.752l-2.16,0l0,-7.44c0,-1.312 -0.324,-2.316 -0.972,-3.012c-0.648,-0.696 -1.524,-1.044 -2.628,-1.044c-1.136,0 -2.04,0.364 -2.712,1.092c-0.672,0.728 -1.008,1.78 -1.008,3.156l0,7.248l-2.16,0l0,-7.44c0,-1.312 -0.324,-2.316 -0.972,-3.012c-0.648,-0.696 -1.524,-1.044 -2.628,-1.044c-1.136,0 -2.04,0.364 -2.712,1.092c-0.672,0.728 -1.008,1.78 -1.008,3.156l0,7.248l-2.184,0l0,-13.152l2.184,0l0,1.896c0.432,-0.688 1.012,-1.216 1.74,-1.584c0.728,-0.368 1.532,-0.552 2.412,-0.552c1.104,0 2.08,0.248 2.928,0.744c0.848,0.496 1.48,1.224 1.896,2.184c0.368,-0.928 0.976,-1.648 1.824,-2.16c0.848,-0.512 1.792,-0.768 2.832,-0.768zm24.6667,0c1.024,0 1.936,0.212 2.736,0.636c0.8,0.424 1.432,1.06 1.896,1.908c0.464,0.848 0.696,1.88 0.696,3.096l0,7.752l-2.16,0l0,-7.44c0,-1.312 -0.324,-2.316 -0.972,-3.012c-0.648,-0.696 -1.524,-1.044 -2.628,-1.044c-1.136,0 -2.04,0.364 -2.712,1.092c-0.672,0.728 -1.008,1.78 -1.008,3.156l0,7.248l-2.16,0l0,-7.44c0,-1.312 -0.324,-2.316 -0.972,-3.012c-0.648,-0.696 -1.524,-1.044 -2.628,-1.044c-1.136,0 -2.04,0.364 -2.712,1.092c-0.672,0.728 -1.008,1.78 -1.008,3.156l0,7.248l-2.184,0l0,-13.152l2.184,0l0,1.896c0.432,-0.688 1.012,-1.216 1.74,-1.584c0.728,-0.368 1.532,-0.552 2.412,-0.552c1.104,0 2.08,0.248 2.928,0.744c0.848,0.496 1.48,1.224 1.896,2.184c0.368,-0.928 0.976,-1.648 1.824,-2.16c0.848,-0.512 1.792,-0.768 2.832,-0.768zm8.0347,6.768c0,-1.344 0.272,-2.524 0.816,-3.54c0.544,-1.016 1.292,-1.804 2.244,-2.364c0.952,-0.56 2.012,-0.84 3.18,-0.84c1.152,0 2.152,0.248 3,0.744c0.848,0.496 1.48,1.12 1.896,1.872l0,-2.4l2.208,0l0,13.152l-2.208,0l0,-2.448c-0.432,0.768 -1.076,1.404 -1.932,1.908c-0.856,0.504 -1.852,0.756 -2.988,0.756c-1.168,0 -2.224,-0.288 -3.168,-0.864c-0.944,-0.576 -1.688,-1.384 -2.232,-2.424c-0.544,-1.04 -0.816,-2.224 -0.816,-3.552zm11.136,0.024c0,-0.992 -0.2,-1.856 -0.6,-2.592c-0.4,-0.736 -0.94,-1.3 -1.62,-1.692c-0.68,-0.392 -1.428,-0.588 -2.244,-0.588c-0.816,0 -1.56,0.192 -2.232,0.576c-0.672,0.384 -1.208,0.944 -1.608,1.68c-0.4,0.736 -0.6,1.6 -0.6,2.592c0,1.008 0.2,1.884 0.6,2.628c0.4,0.744 0.936,1.312 1.608,1.704c0.672,0.392 1.416,0.588 2.232,0.588c0.816,0 1.564,-0.196 2.244,-0.588c0.68,-0.392 1.22,-0.96 1.62,-1.704c0.4,-0.744 0.6,-1.612 0.6,-2.604zm12.2543,-6.792c1.6,0 2.896,0.484 3.888,1.452c0.992,0.968 1.488,2.364 1.488,4.188l0,7.752l-2.16,0l0,-7.44c0,-1.312 -0.328,-2.316 -0.984,-3.012c-0.656,-0.696 -1.552,-1.044 -2.688,-1.044c-1.152,0 -2.068,0.36 -2.748,1.08c-0.68,0.72 -1.02,1.768 -1.02,3.144l0,7.272l-2.184,0l0,-13.152l2.184,0l0,1.872c0.432,-0.672 1.02,-1.192 1.764,-1.56c0.744,-0.368 1.564,-0.552 2.46,-0.552zm8.11,6.768c0,-1.344 0.272,-2.524 0.816,-3.54c0.544,-1.016 1.292,-1.804 2.244,-2.364c0.952,-0.56 2.02,-0.84 3.204,-0.84c1.024,0 1.976,0.236 2.856,0.708c0.88,0.472 1.552,1.092 2.016,1.86l0,-6.96l2.208,0l0,17.76l-2.208,0l0,-2.472c-0.432,0.784 -1.072,1.428 -1.92,1.932c-0.848,0.504 -1.84,0.756 -2.976,0.756c-1.168,0 -2.228,-0.288 -3.18,-0.864c-0.952,-0.576 -1.7,-1.384 -2.244,-2.424c-0.544,-1.04 -0.816,-2.224 -0.816,-3.552zm11.136,0.024c0,-0.992 -0.2,-1.856 -0.6,-2.592c-0.4,-0.736 -0.94,-1.3 -1.62,-1.692c-0.68,-0.392 -1.428,-0.588 -2.244,-0.588c-0.816,0 -1.56,0.192 -2.232,0.576c-0.672,0.384 -1.208,0.944 -1.608,1.68c-0.4,0.736 -0.6,1.6 -0.6,2.592c0,1.008 0.2,1.884 0.6,2.628c0.4,0.744 0.936,1.312 1.608,1.704c0.672,0.392 1.416,0.588 2.232,0.588c0.816,0 1.564,-0.196 2.244,-0.588c0.68,-0.392 1.22,-0.96 1.62,-1.704c0.4,-0.744 0.6,-1.612 0.6,-2.604z" fill="#FFFFFF" id="svg_52"/>
    </g>
   </g>
   <text fill="#FFFFFF" font-family="Poppins,Poppins_MSFontService,sans-serif" font-weight="400" font-size="24" y="452" x="672.68701" id="svg_53">Command</text>
   <g clip-path="url(#clip22)" filter="url(#fx7)" id="svg_54">
    <g id="svg_55">
     <path d="m682.9588,482l-2.184,0l-8.784,-13.32l0,13.32l-2.184,0l0,-16.752l2.184,0l8.784,13.296l0,-13.296l2.184,0l0,16.752zm9.4173,0.216c-1.232,0 -2.348,-0.28 -3.348,-0.84c-1,-0.56 -1.784,-1.356 -2.352,-2.388c-0.568,-1.032 -0.852,-2.228 -0.852,-3.588c0,-1.344 0.292,-2.532 0.876,-3.564c0.584,-1.032 1.38,-1.824 2.388,-2.376c1.008,-0.552 2.136,-0.828 3.384,-0.828c1.248,0 2.376,0.276 3.384,0.828c1.008,0.552 1.804,1.34 2.388,2.364c0.584,1.024 0.876,2.216 0.876,3.576c0,1.36 -0.3,2.556 -0.9,3.588c-0.6,1.032 -1.412,1.828 -2.436,2.388c-1.024,0.56 -2.16,0.84 -3.408,0.84zm0,-1.92c0.784,0 1.52,-0.184 2.208,-0.552c0.688,-0.368 1.244,-0.92 1.668,-1.656c0.424,-0.736 0.636,-1.632 0.636,-2.688c0,-1.056 -0.208,-1.952 -0.624,-2.688c-0.416,-0.736 -0.96,-1.284 -1.632,-1.644c-0.672,-0.36 -1.4,-0.54 -2.184,-0.54c-0.8,0 -1.532,0.18 -2.196,0.54c-0.664,0.36 -1.196,0.908 -1.596,1.644c-0.4,0.736 -0.6,1.632 -0.6,2.688c0,1.072 0.196,1.976 0.588,2.712c0.392,0.736 0.916,1.284 1.572,1.644c0.656,0.36 1.376,0.54 2.16,0.54zm12.2614,-9.648l0,7.752c0,0.64 0.136,1.092 0.408,1.356c0.272,0.264 0.744,0.396 1.416,0.396l1.608,0l0,1.848l-1.968,0c-1.216,0 -2.128,-0.28 -2.736,-0.84c-0.608,-0.56 -0.912,-1.48 -0.912,-2.76l0,-7.752l-1.704,0l0,-1.8l1.704,0l0,-3.312l2.184,0l0,3.312l3.432,0l0,1.8l-3.432,0zm7.1306,-3.936c-0.416,0 -0.768,-0.144 -1.056,-0.432c-0.288,-0.288 -0.432,-0.64 -0.432,-1.056c0,-0.416 0.144,-0.768 0.432,-1.056c0.288,-0.288 0.64,-0.432 1.056,-0.432c0.4,0 0.74,0.144 1.02,0.432c0.28,0.288 0.42,0.64 0.42,1.056c0,0.416 -0.14,0.768 -0.42,1.056c-0.28,0.288 -0.62,0.432 -1.02,0.432zm1.056,2.136l0,13.152l-2.184,0l0,-13.152l2.184,0zm9.0014,1.8l-2.76,0l0,11.352l-2.184,0l0,-11.352l-1.704,0l0,-1.8l1.704,0l0,-0.936c0,-1.472 0.38,-2.548 1.14,-3.228c0.76,-0.68 1.98,-1.02 3.66,-1.02l0,1.824c-0.96,0 -1.636,0.188 -2.028,0.564c-0.392,0.376 -0.588,0.996 -0.588,1.86l0,0.936l2.76,0l0,1.8zm13.8093,-1.8l-7.92,19.344l-2.256,0l2.592,-6.336l-5.304,-13.008l2.424,0l4.128,10.656l4.08,-10.656l2.256,0zm13.8093,13.32c-1.104,0 -2.092,-0.196 -2.964,-0.588c-0.872,-0.392 -1.556,-0.936 -2.052,-1.632c-0.496,-0.696 -0.752,-1.5 -0.768,-2.412l2.328,0c0.08,0.784 0.404,1.444 0.972,1.98c0.568,0.536 1.396,0.804 2.484,0.804c1.04,0 1.86,-0.26 2.46,-0.78c0.6,-0.52 0.9,-1.188 0.9,-2.004c0,-0.64 -0.176,-1.16 -0.528,-1.56c-0.352,-0.4 -0.792,-0.704 -1.32,-0.912c-0.528,-0.208 -1.24,-0.432 -2.136,-0.672c-1.104,-0.288 -1.988,-0.576 -2.652,-0.864c-0.664,-0.288 -1.232,-0.74 -1.704,-1.356c-0.472,-0.616 -0.708,-1.444 -0.708,-2.484c0,-0.912 0.232,-1.72 0.696,-2.424c0.464,-0.704 1.116,-1.248 1.956,-1.632c0.84,-0.384 1.804,-0.576 2.892,-0.576c1.568,0 2.852,0.392 3.852,1.176c1,0.784 1.564,1.824 1.692,3.12l-2.4,0c-0.08,-0.64 -0.416,-1.204 -1.008,-1.692c-0.592,-0.488 -1.376,-0.732 -2.352,-0.732c-0.912,0 -1.656,0.236 -2.232,0.708c-0.576,0.472 -0.864,1.132 -0.864,1.98c0,0.608 0.172,1.104 0.516,1.488c0.344,0.384 0.768,0.676 1.272,0.876c0.504,0.2 1.212,0.428 2.124,0.684c1.104,0.304 1.992,0.604 2.664,0.9c0.672,0.296 1.248,0.752 1.728,1.368c0.48,0.616 0.72,1.452 0.72,2.508c0,0.816 -0.216,1.584 -0.648,2.304c-0.432,0.72 -1.072,1.304 -1.92,1.752c-0.848,0.448 -1.848,0.672 -3,0.672zm8.0467,-6.768c0,-1.36 0.272,-2.548 0.816,-3.564c0.544,-1.016 1.3,-1.804 2.268,-2.364c0.968,-0.56 2.076,-0.84 3.324,-0.84c1.616,0 2.948,0.392 3.996,1.176c1.048,0.784 1.74,1.872 2.076,3.264l-2.352,0c-0.224,-0.8 -0.66,-1.432 -1.308,-1.896c-0.648,-0.464 -1.452,-0.696 -2.412,-0.696c-1.248,0 -2.256,0.428 -3.024,1.284c-0.768,0.856 -1.152,2.068 -1.152,3.636c0,1.584 0.384,2.808 1.152,3.672c0.768,0.864 1.776,1.296 3.024,1.296c0.96,0 1.76,-0.224 2.4,-0.672c0.64,-0.448 1.08,-1.088 1.32,-1.92l2.352,0c-0.352,1.344 -1.056,2.42 -2.112,3.228c-1.056,0.808 -2.376,1.212 -3.96,1.212c-1.248,0 -2.356,-0.28 -3.324,-0.84c-0.968,-0.56 -1.724,-1.352 -2.268,-2.376c-0.544,-1.024 -0.816,-2.224 -0.816,-3.6zm17.5,-4.416c0.384,-0.752 0.932,-1.336 1.644,-1.752c0.712,-0.416 1.58,-0.624 2.604,-0.624l0,2.256l-0.576,0c-2.448,0 -3.672,1.328 -3.672,3.984l0,7.152l-2.184,0l0,-13.152l2.184,0l0,2.136zm7.944,-4.272c-0.416,0 -0.768,-0.144 -1.056,-0.432c-0.288,-0.288 -0.432,-0.64 -0.432,-1.056c0,-0.416 0.144,-0.768 0.432,-1.056c0.288,-0.288 0.64,-0.432 1.056,-0.432c0.4,0 0.74,0.144 1.02,0.432c0.28,0.288 0.42,0.64 0.42,1.056c0,0.416 -0.14,0.768 -0.42,1.056c-0.28,0.288 -0.62,0.432 -1.02,0.432zm1.056,2.136l0,13.152l-2.184,0l0,-13.152l2.184,0zm5.833,2.424c0.432,-0.752 1.076,-1.38 1.932,-1.884c0.856,-0.504 1.852,-0.756 2.988,-0.756c1.168,0 2.228,0.28 3.18,0.84c0.952,0.56 1.7,1.348 2.244,2.364c0.544,1.016 0.816,2.196 0.816,3.54c0,1.328 -0.272,2.512 -0.816,3.552c-0.544,1.04 -1.292,1.848 -2.244,2.424c-0.952,0.576 -2.012,0.864 -3.18,0.864c-1.12,0 -2.108,-0.252 -2.964,-0.756c-0.856,-0.504 -1.508,-1.132 -1.956,-1.884l0,8.664l-2.184,0l0,-19.392l2.184,0l0,2.424zm8.928,4.104c0,-0.992 -0.2,-1.856 -0.6,-2.592c-0.4,-0.736 -0.94,-1.296 -1.62,-1.68c-0.68,-0.384 -1.428,-0.576 -2.244,-0.576c-0.8,0 -1.54,0.196 -2.22,0.588c-0.68,0.392 -1.224,0.96 -1.632,1.704c-0.408,0.744 -0.612,1.604 -0.612,2.58c0,0.992 0.204,1.86 0.612,2.604c0.408,0.744 0.952,1.312 1.632,1.704c0.68,0.392 1.42,0.588 2.22,0.588c0.816,0 1.564,-0.196 2.244,-0.588c0.68,-0.392 1.22,-0.96 1.62,-1.704c0.4,-0.744 0.6,-1.62 0.6,-2.628zm7.719,-4.728l0,7.752c0,0.64 0.136,1.092 0.408,1.356c0.272,0.264 0.744,0.396 1.416,0.396l1.608,0l0,1.848l-1.968,0c-1.216,0 -2.128,-0.28 -2.736,-0.84c-0.608,-0.56 -0.912,-1.48 -0.912,-2.76l0,-7.752l-1.704,0l0,-1.8l1.704,0l0,-3.312l2.184,0l0,3.312l3.432,0l0,1.8l-3.432,0z" fill="#FFFFFF" id="svg_56"/>
    </g>
   </g>
   <text fill="#FFFFFF" font-family="Poppins,Poppins_MSFontService,sans-serif" font-weight="400" font-size="24" y="481" x="666.77399" id="svg_57">Notify Script</text>
   <path d="m945.5,373.334c0,-7.088 5.746,-12.834 12.834,-12.834l276.336,0c7.08,0 12.83,5.746 12.83,12.834l0,51.332c0,7.088 -5.75,12.834 -12.83,12.834l-276.336,0c-7.088,0 -12.834,-5.746 -12.834,-12.834l0,-51.332z" stroke="#0EAFE0" stroke-width="1.33333" stroke-miterlimit="8" fill="#0EAFE0" fill-rule="evenodd" id="svg_58"/>
   <g clip-path="url(#clip23)" filter="url(#fx8)" id="svg_59">
    <g id="svg_60">
     <path d="m969.4516,407.168c-1.104,0 -2.092,-0.196 -2.964,-0.588c-0.872,-0.392 -1.556,-0.936 -2.052,-1.632c-0.496,-0.696 -0.752,-1.5 -0.768,-2.412l2.328,0c0.08,0.784 0.404,1.444 0.972,1.98c0.568,0.536 1.396,0.804 2.484,0.804c1.04,0 1.86,-0.26 2.46,-0.78c0.6,-0.52 0.9,-1.188 0.9,-2.004c0,-0.64 -0.176,-1.16 -0.528,-1.56c-0.352,-0.4 -0.792,-0.704 -1.32,-0.912c-0.528,-0.208 -1.24,-0.432 -2.136,-0.672c-1.104,-0.288 -1.988,-0.576 -2.652,-0.864c-0.664,-0.288 -1.232,-0.74 -1.704,-1.356c-0.472,-0.616 -0.708,-1.444 -0.708,-2.484c0,-0.912 0.232,-1.72 0.696,-2.424c0.464,-0.704 1.116,-1.248 1.956,-1.632c0.84,-0.384 1.804,-0.576 2.892,-0.576c1.568,0 2.852,0.392 3.852,1.176c1,0.784 1.564,1.824 1.692,3.12l-2.4,0c-0.08,-0.64 -0.416,-1.204 -1.008,-1.692c-0.592,-0.488 -1.376,-0.732 -2.352,-0.732c-0.912,0 -1.656,0.236 -2.232,0.708c-0.576,0.472 -0.864,1.132 -0.864,1.98c0,0.608 0.172,1.104 0.516,1.488c0.344,0.384 0.768,0.676 1.272,0.876c0.504,0.2 1.212,0.428 2.124,0.684c1.104,0.304 1.992,0.604 2.664,0.9c0.672,0.296 1.248,0.752 1.728,1.368c0.48,0.616 0.72,1.452 0.72,2.508c0,0.816 -0.216,1.584 -0.648,2.304c-0.432,0.72 -1.072,1.304 -1.92,1.752c-0.848,0.448 -1.848,0.672 -3,0.672zm24.6787,-13.56c1.024,0 1.936,0.212 2.736,0.636c0.8,0.424 1.432,1.06 1.896,1.908c0.464,0.848 0.696,1.88 0.696,3.096l0,7.752l-2.16,0l0,-7.44c0,-1.312 -0.324,-2.316 -0.972,-3.012c-0.648,-0.696 -1.524,-1.044 -2.628,-1.044c-1.136,0 -2.04,0.364 -2.712,1.092c-0.672,0.728 -1.008,1.78 -1.008,3.156l0,7.248l-2.16,0l0,-7.44c0,-1.312 -0.324,-2.316 -0.972,-3.012c-0.648,-0.696 -1.524,-1.044 -2.628,-1.044c-1.136,0 -2.04,0.364 -2.712,1.092c-0.672,0.728 -1.008,1.78 -1.008,3.156l0,7.248l-2.184,0l0,-13.152l2.184,0l0,1.896c0.432,-0.688 1.012,-1.216 1.74,-1.584c0.728,-0.368 1.532,-0.552 2.412,-0.552c1.104,0 2.08,0.248 2.928,0.744c0.848,0.496 1.48,1.224 1.896,2.184c0.368,-0.928 0.976,-1.648 1.824,-2.16c0.848,-0.512 1.792,-0.768 2.832,-0.768zm8.0346,6.768c0,-1.344 0.272,-2.524 0.816,-3.54c0.544,-1.016 1.292,-1.804 2.244,-2.364c0.952,-0.56 2.012,-0.84 3.18,-0.84c1.152,0 2.152,0.248 3,0.744c0.848,0.496 1.48,1.12 1.896,1.872l0,-2.4l2.208,0l0,13.152l-2.208,0l0,-2.448c-0.432,0.768 -1.076,1.404 -1.932,1.908c-0.856,0.504 -1.852,0.756 -2.988,0.756c-1.168,0 -2.224,-0.288 -3.168,-0.864c-0.944,-0.576 -1.688,-1.384 -2.232,-2.424c-0.544,-1.04 -0.816,-2.224 -0.816,-3.552zm11.136,0.024c0,-0.992 -0.2,-1.856 -0.6,-2.592c-0.4,-0.736 -0.94,-1.3 -1.62,-1.692c-0.68,-0.392 -1.428,-0.588 -2.244,-0.588c-0.816,0 -1.56,0.192 -2.232,0.576c-0.672,0.384 -1.208,0.944 -1.608,1.68c-0.4,0.736 -0.6,1.6 -0.6,2.592c0,1.008 0.2,1.884 0.6,2.628c0.4,0.744 0.936,1.312 1.608,1.704c0.672,0.392 1.416,0.588 2.232,0.588c0.816,0 1.564,-0.196 2.244,-0.588c0.68,-0.392 1.22,-0.96 1.62,-1.704c0.4,-0.744 0.6,-1.612 0.6,-2.604zm8.0307,-4.416c0.384,-0.752 0.932,-1.336 1.644,-1.752c0.712,-0.416 1.58,-0.624 2.604,-0.624l0,2.256l-0.576,0c-2.448,0 -3.672,1.328 -3.672,3.984l0,7.152l-2.184,0l0,-13.152l2.184,0l0,2.136zm9.48,-0.336l0,7.752c0,0.64 0.136,1.092 0.408,1.356c0.272,0.264 0.744,0.396 1.416,0.396l1.608,0l0,1.848l-1.968,0c-1.216,0 -2.128,-0.28 -2.736,-0.84c-0.608,-0.56 -0.912,-1.48 -0.912,-2.76l0,-7.752l-1.704,0l0,-1.8l1.704,0l0,-3.312l2.184,0l0,3.312l3.432,0l0,1.8l-3.432,0zm21.408,11.352l-6.888,-7.632l0,7.632l-2.184,0l0,-16.728l2.184,0l0,7.752l6.912,-7.752l2.76,0l-7.584,8.376l7.656,8.352l-2.856,0zm6.3893,-15.288c-0.416,0 -0.768,-0.144 -1.056,-0.432c-0.288,-0.288 -0.432,-0.64 -0.432,-1.056c0,-0.416 0.144,-0.768 0.432,-1.056c0.288,-0.288 0.64,-0.432 1.056,-0.432c0.4,0 0.74,0.144 1.02,0.432c0.28,0.288 0.42,0.64 0.42,1.056c0,0.416 -0.14,0.768 -0.42,1.056c-0.28,0.288 -0.62,0.432 -1.02,0.432zm1.056,2.136l0,13.152l-2.184,0l0,-13.152l2.184,0zm6.3137,1.8l0,7.752c0,0.64 0.136,1.092 0.408,1.356c0.272,0.264 0.744,0.396 1.416,0.396l1.608,0l0,1.848l-1.968,0c-1.216,0 -2.128,-0.28 -2.736,-0.84c-0.608,-0.56 -0.912,-1.48 -0.912,-2.76l0,-7.752l-1.7043,0l0,-1.8l1.7043,0l0,-3.312l2.184,0l0,3.312l3.432,0l0,1.8l-3.432,0zm5.186,4.752c0,-1.36 0.272,-2.548 0.816,-3.564c0.544,-1.016 1.3,-1.804 2.268,-2.364c0.968,-0.56 2.076,-0.84 3.324,-0.84c1.616,0 2.948,0.392 3.996,1.176c1.048,0.784 1.74,1.872 2.076,3.264l-2.352,0c-0.224,-0.8 -0.66,-1.432 -1.308,-1.896c-0.648,-0.464 -1.452,-0.696 -2.412,-0.696c-1.248,0 -2.256,0.428 -3.024,1.284c-0.768,0.856 -1.152,2.068 -1.152,3.636c0,1.584 0.384,2.808 1.152,3.672c0.768,0.864 1.776,1.296 3.024,1.296c0.96,0 1.76,-0.224 2.4,-0.672c0.64,-0.448 1.08,-1.088 1.32,-1.92l2.352,0c-0.352,1.344 -1.056,2.42 -2.112,3.228c-1.056,0.808 -2.376,1.212 -3.96,1.212c-1.248,0 -2.356,-0.28 -3.324,-0.84c-0.968,-0.56 -1.724,-1.352 -2.268,-2.376c-0.544,-1.024 -0.816,-2.224 -0.816,-3.6zm21.844,-6.792c0.992,0 1.888,0.212 2.688,0.636c0.8,0.424 1.428,1.06 1.884,1.908c0.456,0.848 0.684,1.88 0.684,3.096l0,7.752l-2.16,0l0,-7.44c0,-1.312 -0.328,-2.316 -0.984,-3.012c-0.656,-0.696 -1.552,-1.044 -2.688,-1.044c-1.152,0 -2.068,0.36 -2.748,1.08c-0.68,0.72 -1.02,1.768 -1.02,3.144l0,7.272l-2.184,0l0,-17.76l2.184,0l0,6.48c0.432,-0.672 1.028,-1.192 1.788,-1.56c0.76,-0.368 1.612,-0.552 2.556,-0.552zm20.806,6.312c0,0.416 -0.024,0.856 -0.072,1.32l-10.512,0c0.08,1.296 0.524,2.308 1.332,3.036c0.808,0.728 1.788,1.092 2.94,1.092c0.944,0 1.732,-0.22 2.364,-0.66c0.632,-0.44 1.076,-1.028 1.332,-1.764l2.352,0c-0.352,1.264 -1.056,2.292 -2.112,3.084c-1.056,0.792 -2.368,1.188 -3.936,1.188c-1.248,0 -2.364,-0.28 -3.348,-0.84c-0.984,-0.56 -1.756,-1.356 -2.316,-2.388c-0.56,-1.032 -0.84,-2.228 -0.84,-3.588c0,-1.36 0.272,-2.552 0.816,-3.576c0.544,-1.024 1.308,-1.812 2.292,-2.364c0.984,-0.552 2.116,-0.828 3.396,-0.828c1.248,0 2.352,0.272 3.312,0.816c0.96,0.544 1.7,1.292 2.22,2.244c0.52,0.952 0.78,2.028 0.78,3.228zm-2.256,-0.456c0,-0.832 -0.184,-1.548 -0.552,-2.148c-0.368,-0.6 -0.868,-1.056 -1.5,-1.368c-0.632,-0.312 -1.332,-0.468 -2.1,-0.468c-1.104,0 -2.044,0.352 -2.82,1.056c-0.776,0.704 -1.22,1.68 -1.332,2.928l8.304,0zm11.497,-5.856c1.6,0 2.896,0.484 3.888,1.452c0.992,0.968 1.488,2.364 1.488,4.188l0,7.752l-2.16,0l0,-7.44c0,-1.312 -0.328,-2.316 -0.984,-3.012c-0.656,-0.696 -1.552,-1.044 -2.688,-1.044c-1.152,0 -2.068,0.36 -2.748,1.08c-0.68,0.72 -1.02,1.768 -1.02,3.144l0,7.272l-2.184,0l0,-13.152l2.184,0l0,1.872c0.432,-0.672 1.02,-1.192 1.764,-1.56c0.744,-0.368 1.564,-0.552 2.46,-0.552zm27.931,1.512c-0.464,-0.976 -1.136,-1.732 -2.016,-2.268c-0.88,-0.536 -1.904,-0.804 -3.072,-0.804c-1.168,0 -2.22,0.268 -3.156,0.804c-0.936,0.536 -1.672,1.304 -2.208,2.304c-0.536,1 -0.804,2.156 -0.804,3.468c0,1.312 0.268,2.464 0.804,3.456c0.536,0.992 1.272,1.756 2.208,2.292c0.936,0.536 1.988,0.804 3.156,0.804c1.632,0 2.976,-0.488 4.032,-1.464c1.056,-0.976 1.672,-2.296 1.848,-3.96l-6.672,0l0,-1.776l9,0l0,1.68c-0.128,1.376 -0.56,2.636 -1.296,3.78c-0.736,1.144 -1.704,2.048 -2.904,2.712c-1.2,0.664 -2.536,0.996 -4.008,0.996c-1.552,0 -2.968,-0.364 -4.248,-1.092c-1.28,-0.728 -2.292,-1.74 -3.036,-3.036c-0.744,-1.296 -1.116,-2.76 -1.116,-4.392c0,-1.632 0.372,-3.1 1.116,-4.404c0.744,-1.304 1.756,-2.32 3.036,-3.048c1.28,-0.728 2.696,-1.092 4.248,-1.092c1.776,0 3.348,0.44 4.716,1.32c1.368,0.88 2.364,2.12 2.988,3.72l-2.616,0zm8.13,-4.848l0,10.584c0,1.488 0.364,2.592 1.092,3.312c0.728,0.72 1.74,1.08 3.036,1.08c1.28,0 2.284,-0.36 3.012,-1.08c0.728,-0.72 1.092,-1.824 1.092,-3.312l0,-10.584l2.184,0l0,10.56c0,1.392 -0.28,2.564 -0.84,3.516c-0.56,0.952 -1.316,1.66 -2.268,2.124c-0.952,0.464 -2.02,0.696 -3.204,0.696c-1.184,0 -2.252,-0.232 -3.204,-0.696c-0.952,-0.464 -1.704,-1.172 -2.256,-2.124c-0.552,-0.952 -0.828,-2.124 -0.828,-3.516l0,-10.56l2.184,0zm16.215,0l0,16.728l-2.184,0l0,-16.728l2.184,0zm19.871,13.008l-7.296,0l-1.344,3.72l-2.304,0l6.048,-16.632l2.52,0l6.024,16.632l-2.304,0l-1.344,-3.72zm-0.624,-1.776l-3.024,-8.448l-3.024,8.448l6.048,0zm9.086,-5.232c0.432,-0.752 1.076,-1.38 1.932,-1.884c0.856,-0.504 1.852,-0.756 2.988,-0.756c1.168,0 2.228,0.28 3.18,0.84c0.952,0.56 1.7,1.348 2.244,2.364c0.544,1.016 0.816,2.196 0.816,3.54c0,1.328 -0.272,2.512 -0.816,3.552c-0.544,1.04 -1.292,1.848 -2.244,2.424c-0.952,0.576 -2.012,0.864 -3.18,0.864c-1.12,0 -2.108,-0.252 -2.964,-0.756c-0.856,-0.504 -1.508,-1.132 -1.956,-1.884l0,8.664l-2.184,0l0,-19.392l2.184,0l0,2.424zm8.928,4.104c0,-0.992 -0.2,-1.856 -0.6,-2.592c-0.4,-0.736 -0.94,-1.296 -1.62,-1.68c-0.68,-0.384 -1.428,-0.576 -2.244,-0.576c-0.8,0 -1.54,0.196 -2.22,0.588c-0.68,0.392 -1.224,0.96 -1.632,1.704c-0.408,0.744 -0.612,1.604 -0.612,2.58c0,0.992 0.204,1.86 0.612,2.604c0.408,0.744 0.952,1.312 1.632,1.704c0.68,0.392 1.42,0.588 2.22,0.588c0.816,0 1.564,-0.196 2.244,-0.588c0.68,-0.392 1.22,-0.96 1.62,-1.704c0.4,-0.744 0.6,-1.62 0.6,-2.628zm7.239,-4.104c0.432,-0.752 1.076,-1.38 1.932,-1.884c0.856,-0.504 1.852,-0.756 2.988,-0.756c1.168,0 2.228,0.28 3.18,0.84c0.952,0.56 1.7,1.348 2.244,2.364c0.544,1.016 0.816,2.196 0.816,3.54c0,1.328 -0.272,2.512 -0.816,3.552c-0.544,1.04 -1.292,1.848 -2.244,2.424c-0.952,0.576 -2.012,0.864 -3.18,0.864c-1.12,0 -2.108,-0.252 -2.964,-0.756c-0.856,-0.504 -1.508,-1.132 -1.956,-1.884l0,8.664l-2.184,0l0,-19.392l2.184,0l0,2.424zm8.928,4.104c0,-0.992 -0.2,-1.856 -0.6,-2.592c-0.4,-0.736 -0.94,-1.296 -1.62,-1.68c-0.68,-0.384 -1.428,-0.576 -2.244,-0.576c-0.8,0 -1.54,0.196 -2.22,0.588c-0.68,0.392 -1.224,0.96 -1.632,1.704c-0.408,0.744 -0.612,1.604 -0.612,2.58c0,0.992 0.204,1.86 0.612,2.604c0.408,0.744 0.952,1.312 1.632,1.704c0.68,0.392 1.42,0.588 2.22,0.588c0.816,0 1.564,-0.196 2.244,-0.588c0.68,-0.392 1.22,-0.96 1.62,-1.704c0.4,-0.744 0.6,-1.62 0.6,-2.628z" fill="#FFFFFF" id="svg_61"/>
    </g>
   </g>
   <text fill="#FFFFFF" font-family="Poppins,Poppins_MSFontService,sans-serif" font-weight="400" font-size="24" y="406" x="991.11499" id="svg_62">E-Bike VIT GUI App</text>
   <path d="m1096.5,493.334c0,-7.088 5.75,-12.834 12.83,-12.834l116.34,0c7.08,0 12.83,5.746 12.83,12.834l0,51.332c0,7.088 -5.75,12.834 -12.83,12.834l-116.34,0c-7.08,0 -12.83,-5.746 -12.83,-12.834l0,-51.332z" stroke="#69CA00" stroke-width="1.33333" stroke-miterlimit="8" fill="#69CA00" fill-rule="evenodd" id="svg_63"/>
   <g clip-path="url(#clip24)" filter="url(#fx9)" id="svg_64">
    <g id="svg_65">
     <path d="m1144.615,526.224l5.856,0l0,1.776l-8.04,0l0,-16.728l2.184,0l0,14.952zm21.9733,-14.952l-6.312,16.728l-2.52,0l-6.312,-16.728l2.328,0l5.256,14.424l5.256,-14.424l2.304,0zm15.0147,4.848c-0.464,-0.976 -1.136,-1.732 -2.016,-2.268c-0.88,-0.536 -1.904,-0.804 -3.072,-0.804c-1.168,0 -2.22,0.268 -3.156,0.804c-0.936,0.536 -1.672,1.304 -2.208,2.304c-0.536,1 -0.804,2.156 -0.804,3.468c0,1.312 0.268,2.464 0.804,3.456c0.536,0.992 1.272,1.756 2.208,2.292c0.936,0.536 1.988,0.804 3.156,0.804c1.632,0 2.976,-0.488 4.032,-1.464c1.056,-0.976 1.672,-2.296 1.848,-3.96l-6.672,0l0,-1.776l9,0l0,1.68c-0.128,1.376 -0.56,2.636 -1.296,3.78c-0.736,1.144 -1.704,2.048 -2.904,2.712c-1.2,0.664 -2.536,0.996 -4.008,0.996c-1.552,0 -2.968,-0.364 -4.248,-1.092c-1.28,-0.728 -2.292,-1.74 -3.036,-3.036c-0.744,-1.296 -1.116,-2.76 -1.116,-4.392c0,-1.632 0.372,-3.1 1.116,-4.404c0.744,-1.304 1.756,-2.32 3.036,-3.048c1.28,-0.728 2.696,-1.092 4.248,-1.092c1.776,0 3.348,0.44 4.716,1.32c1.368,0.88 2.364,2.12 2.988,3.72l-2.616,0zm8.1787,10.104l5.856,0l0,1.776l-8.04,0l0,-16.728l2.184,0l0,14.952z" fill="#FFFFFF" id="svg_66"/>
    </g>
   </g>
   <text fill="#FFFFFF" font-family="Poppins,Poppins_MSFontService,sans-serif" font-weight="400" font-size="24" y="526" x="1139.40002" id="svg_67">LVGL</text>
   <path d="m954.5,602.333c0,-7.087 5.746,-12.833 12.833,-12.833l258.337,0c7.08,0 12.83,5.746 12.83,12.833l0,51.334c0,7.087 -5.75,12.833 -12.83,12.833l-258.337,0c-7.087,0 -12.833,-5.746 -12.833,-12.833l0,-51.334z" stroke="#69CA00" stroke-width="1.33333" stroke-miterlimit="8" fill="#69CA00" fill-rule="evenodd" id="svg_68"/>
   <g clip-path="url(#clip25)" filter="url(#fx10)" id="svg_69">
    <g id="svg_70">
     <path d="m1031.6651,634.224l5.856,0l0,1.776l-8.04,0l0,-16.728l2.184,0l0,14.952zm21.9733,-14.952l-6.312,16.728l-2.52,0l-6.312,-16.728l2.328,0l5.256,14.424l5.256,-14.424l2.304,0zm15.7827,17.64l0,2.016l-12.768,0l0,-2.016l12.768,0zm9.4347,-17.64c1.824,0 3.404,0.34 4.74,1.02c1.336,0.68 2.36,1.652 3.072,2.916c0.712,1.264 1.068,2.752 1.068,4.464c0,1.712 -0.356,3.196 -1.068,4.452c-0.712,1.256 -1.736,2.216 -3.072,2.88c-1.336,0.664 -2.916,0.996 -4.74,0.996l-5.208,0l0,-16.728l5.208,0zm0,14.928c2.16,0 3.808,-0.572 4.944,-1.716c1.136,-1.144 1.704,-2.748 1.704,-4.812c0,-2.08 -0.572,-3.704 -1.716,-4.872c-1.144,-1.168 -2.788,-1.752 -4.932,-1.752l-3.024,0l0,13.152l3.024,0zm20.6,1.8l-3.984,-6.84l-2.64,0l0,6.84l-2.184,0l0,-16.728l5.4,0c1.264,0 2.332,0.216 3.204,0.648c0.872,0.432 1.524,1.016 1.956,1.752c0.432,0.736 0.648,1.576 0.648,2.52c0,1.152 -0.332,2.168 -0.996,3.048c-0.664,0.88 -1.66,1.464 -2.988,1.752l4.2,7.008l-2.616,0zm-6.624,-8.592l3.216,0c1.184,0 2.072,-0.292 2.664,-0.876c0.592,-0.584 0.888,-1.364 0.888,-2.34c0,-0.992 -0.292,-1.76 -0.876,-2.304c-0.584,-0.544 -1.476,-0.816 -2.676,-0.816l-3.216,0l0,6.336zm14.6666,-8.136l0,16.728l-2.184,0l0,-16.728l2.184,0zm17.4734,0l-6.312,16.728l-2.52,0l-6.312,-16.728l2.328,0l5.256,14.424l5.256,-14.424l2.304,0zm4.5263,1.776l0,5.592l6.096,0l0,1.8l-6.096,0l0,5.76l6.816,0l0,1.8l-8.9997,0l0,-16.752l8.9997,0l0,1.8l-6.816,0zm18.958,14.952l-3.984,-6.84l-2.64,0l0,6.84l-2.184,0l0,-16.728l5.4,0c1.264,0 2.332,0.216 3.204,0.648c0.872,0.432 1.524,1.016 1.956,1.752c0.432,0.736 0.648,1.576 0.648,2.52c0,1.152 -0.332,2.168 -0.996,3.048c-0.664,0.88 -1.66,1.464 -2.988,1.752l4.2,7.008l-2.616,0zm-6.624,-8.592l3.216,0c1.184,0 2.072,-0.292 2.664,-0.876c0.592,-0.584 0.888,-1.364 0.888,-2.34c0,-0.992 -0.292,-1.76 -0.876,-2.304c-0.584,-0.544 -1.476,-0.816 -2.676,-0.816l-3.216,0l0,6.336zm17.786,8.76c-1.104,0 -2.092,-0.196 -2.964,-0.588c-0.872,-0.392 -1.556,-0.936 -2.052,-1.632c-0.496,-0.696 -0.752,-1.5 -0.768,-2.412l2.328,0c0.08,0.784 0.404,1.444 0.972,1.98c0.568,0.536 1.396,0.804 2.484,0.804c1.04,0 1.86,-0.26 2.46,-0.78c0.6,-0.52 0.9,-1.188 0.9,-2.004c0,-0.64 -0.176,-1.16 -0.528,-1.56c-0.352,-0.4 -0.792,-0.704 -1.32,-0.912c-0.528,-0.208 -1.24,-0.432 -2.136,-0.672c-1.104,-0.288 -1.988,-0.576 -2.652,-0.864c-0.664,-0.288 -1.232,-0.74 -1.704,-1.356c-0.472,-0.616 -0.708,-1.444 -0.708,-2.484c0,-0.912 0.232,-1.72 0.696,-2.424c0.464,-0.704 1.116,-1.248 1.956,-1.632c0.84,-0.384 1.804,-0.576 2.892,-0.576c1.568,0 2.852,0.392 3.852,1.176c1,0.784 1.564,1.824 1.692,3.12l-2.4,0c-0.08,-0.64 -0.416,-1.204 -1.008,-1.692c-0.592,-0.488 -1.376,-0.732 -2.352,-0.732c-0.912,0 -1.656,0.236 -2.232,0.708c-0.576,0.472 -0.864,1.132 -0.864,1.98c0,0.608 0.172,1.104 0.516,1.488c0.344,0.384 0.768,0.676 1.272,0.876c0.504,0.2 1.212,0.428 2.124,0.684c1.104,0.304 1.992,0.604 2.664,0.9c0.672,0.296 1.248,0.752 1.728,1.368c0.48,0.616 0.72,1.452 0.72,2.508c0,0.816 -0.216,1.584 -0.648,2.304c-0.432,0.72 -1.072,1.304 -1.92,1.752c-0.848,0.448 -1.848,0.672 -3,0.672z" fill="#FFFFFF" id="svg_71"/>
    </g>
   </g>
   <text fill="#FFFFFF" font-family="Poppins,Poppins_MSFontService,sans-serif" font-weight="400" font-size="24" y="635" x="1026.44995" id="svg_72">LV_DRIVERS</text>
   <path d="m189,596.667c0,-6.996 5.671,-12.667 12.667,-12.667l166.666,0c6.996,0 12.667,5.671 12.667,12.667l0,50.666c0,6.996 -5.671,12.667 -12.667,12.667l-166.666,0c-6.996,0 -12.667,-5.671 -12.667,-12.667l0,-50.666z" fill="#A5A5A5" fill-rule="evenodd" id="svg_73"/>
   <g clip-path="url(#clip26)" filter="url(#fx11)" id="svg_74">
    <g id="svg_75">
     <path d="m240.3155,599.272l-4.848,16.728l-2.448,0l-3.888,-13.464l-4.032,13.464l-2.424,0.024l-4.68,-16.752l2.328,0l3.648,14.184l4.032,-14.184l2.448,0l3.84,14.136l3.672,-14.136l2.352,0zm1.66,10.104c0,-1.344 0.272,-2.524 0.816,-3.54c0.544,-1.016 1.292,-1.804 2.244,-2.364c0.952,-0.56 2.012,-0.84 3.18,-0.84c1.152,0 2.152,0.248 3,0.744c0.848,0.496 1.48,1.12 1.896,1.872l0,-2.4l2.208,0l0,13.152l-2.208,0l0,-2.448c-0.432,0.768 -1.076,1.404 -1.932,1.908c-0.856,0.504 -1.852,0.756 -2.988,0.756c-1.168,0 -2.224,-0.288 -3.168,-0.864c-0.944,-0.576 -1.688,-1.384 -2.232,-2.424c-0.544,-1.04 -0.816,-2.224 -0.816,-3.552zm11.136,0.024c0,-0.992 -0.2,-1.856 -0.6,-2.592c-0.4,-0.736 -0.94,-1.3 -1.62,-1.692c-0.68,-0.392 -1.428,-0.588 -2.244,-0.588c-0.816,0 -1.56,0.192 -2.232,0.576c-0.672,0.384 -1.208,0.944 -1.608,1.68c-0.4,0.736 -0.6,1.6 -0.6,2.592c0,1.008 0.2,1.884 0.6,2.628c0.4,0.744 0.936,1.312 1.608,1.704c0.672,0.392 1.416,0.588 2.232,0.588c0.816,0 1.564,-0.196 2.244,-0.588c0.68,-0.392 1.22,-0.96 1.62,-1.704c0.4,-0.744 0.6,-1.612 0.6,-2.604zm13.1907,6.6l-5.16,-5.808l0,5.808l-2.184,0l0,-17.76l2.184,0l0,10.44l5.064,-5.832l3.048,0l-6.192,6.552l6.216,6.6l-2.976,0zm16.9893,-7.08c0,0.416 -0.024,0.856 -0.072,1.32l-10.512,0c0.08,1.296 0.524,2.308 1.332,3.036c0.808,0.728 1.788,1.092 2.94,1.092c0.944,0 1.732,-0.22 2.364,-0.66c0.632,-0.44 1.076,-1.028 1.332,-1.764l2.352,0c-0.352,1.264 -1.056,2.292 -2.112,3.084c-1.056,0.792 -2.368,1.188 -3.936,1.188c-1.248,0 -2.364,-0.28 -3.348,-0.84c-0.984,-0.56 -1.756,-1.356 -2.316,-2.388c-0.56,-1.032 -0.84,-2.228 -0.84,-3.588c0,-1.36 0.272,-2.552 0.816,-3.576c0.544,-1.024 1.308,-1.812 2.292,-2.364c0.984,-0.552 2.116,-0.828 3.396,-0.828c1.248,0 2.352,0.272 3.312,0.816c0.96,0.544 1.7,1.292 2.22,2.244c0.52,0.952 0.78,2.028 0.78,3.228zm-2.256,-0.456c0,-0.832 -0.184,-1.548 -0.552,-2.148c-0.368,-0.6 -0.868,-1.056 -1.5,-1.368c-0.632,-0.312 -1.332,-0.468 -2.1,-0.468c-1.104,0 -2.044,0.352 -2.82,1.056c-0.776,0.704 -1.22,1.68 -1.332,2.928l8.304,0zm32.4467,-9.192l-4.848,16.728l-2.448,0l-3.888,-13.464l-4.032,13.464l-2.424,0.024l-4.68,-16.752l2.328,0l3.648,14.184l4.032,-14.184l2.448,0l3.84,14.136l3.672,-14.136l2.352,0zm8.2123,16.944c-1.232,0 -2.348,-0.28 -3.348,-0.84c-1.0003,-0.56 -1.7843,-1.356 -2.3523,-2.388c-0.568,-1.032 -0.852,-2.228 -0.852,-3.588c0,-1.344 0.292,-2.532 0.876,-3.564c0.584,-1.032 1.38,-1.824 2.3883,-2.376c1.008,-0.552 2.136,-0.828 3.384,-0.828c1.248,0 2.376,0.276 3.384,0.828c1.008,0.552 1.804,1.34 2.388,2.364c0.584,1.024 0.876,2.216 0.876,3.576c0,1.36 -0.3,2.556 -0.9,3.588c-0.6,1.032 -1.412,1.828 -2.436,2.388c-1.024,0.56 -2.16,0.84 -3.408,0.84zm0,-1.92c0.784,0 1.52,-0.184 2.208,-0.552c0.688,-0.368 1.244,-0.92 1.668,-1.656c0.424,-0.736 0.636,-1.632 0.636,-2.688c0,-1.056 -0.208,-1.952 -0.624,-2.688c-0.416,-0.736 -0.96,-1.284 -1.632,-1.644c-0.672,-0.36 -1.4,-0.54 -2.184,-0.54c-0.8,0 -1.532,0.18 -2.196,0.54c-0.664,0.36 -1.196,0.908 -1.596,1.644c-0.4,0.736 -0.6003,1.632 -0.6003,2.688c0,1.072 0.1963,1.976 0.5883,2.712c0.392,0.736 0.916,1.284 1.572,1.644c0.656,0.36 1.376,0.54 2.16,0.54zm11.781,-9.312c0.384,-0.752 0.932,-1.336 1.644,-1.752c0.712,-0.416 1.58,-0.624 2.604,-0.624l0,2.256l-0.576,0c-2.448,0 -3.672,1.328 -3.672,3.984l0,7.152l-2.184,0l0,-13.152l2.184,0l0,2.136zm6,4.392c0,-1.344 0.272,-2.524 0.816,-3.54c0.544,-1.016 1.292,-1.804 2.244,-2.364c0.952,-0.56 2.02,-0.84 3.204,-0.84c1.024,0 1.976,0.236 2.856,0.708c0.88,0.472 1.552,1.092 2.016,1.86l0,-6.96l2.208,0l0,17.76l-2.208,0l0,-2.472c-0.432,0.784 -1.072,1.428 -1.92,1.932c-0.848,0.504 -1.84,0.756 -2.976,0.756c-1.168,0 -2.228,-0.288 -3.18,-0.864c-0.952,-0.576 -1.7,-1.384 -2.244,-2.424c-0.544,-1.04 -0.816,-2.224 -0.816,-3.552zm11.136,0.024c0,-0.992 -0.2,-1.856 -0.6,-2.592c-0.4,-0.736 -0.94,-1.3 -1.62,-1.692c-0.68,-0.392 -1.428,-0.588 -2.244,-0.588c-0.816,0 -1.56,0.192 -2.232,0.576c-0.672,0.384 -1.208,0.944 -1.608,1.68c-0.4,0.736 -0.6,1.6 -0.6,2.592c0,1.008 0.2,1.884 0.6,2.628c0.4,0.744 0.936,1.312 1.608,1.704c0.672,0.392 1.416,0.588 2.232,0.588c0.816,0 1.564,-0.196 2.244,-0.588c0.68,-0.392 1.22,-0.96 1.62,-1.704c0.4,-0.744 0.6,-1.612 0.6,-2.604z" fill="#FFFFFF" id="svg_76"/>
    </g>
   </g>
   <text fill="#FFFFFF" font-family="Poppins,Poppins_MSFontService,sans-serif" font-weight="400" font-size="24" y="615" x="216.259" id="svg_77">Wake Word</text>
   <g clip-path="url(#clip27)" filter="url(#fx12)" id="svg_78">
    <g id="svg_79">
     <path d="m268.4262,628.392l0,16.608l-2.184,0l0,-12.384l-5.52,12.384l-1.536,0l-5.544,-12.408l0,12.408l-2.184,0l0,-16.608l2.352,0l6.144,13.728l6.144,-13.728l2.328,0zm9.4347,16.824c-1.232,0 -2.348,-0.28 -3.348,-0.84c-1,-0.56 -1.784,-1.356 -2.352,-2.388c-0.568,-1.032 -0.852,-2.228 -0.852,-3.588c0,-1.344 0.292,-2.532 0.876,-3.564c0.584,-1.032 1.38,-1.824 2.388,-2.376c1.008,-0.552 2.136,-0.828 3.384,-0.828c1.248,0 2.376,0.276 3.384,0.828c1.008,0.552 1.804,1.34 2.388,2.364c0.584,1.024 0.876,2.216 0.876,3.576c0,1.36 -0.3,2.556 -0.9,3.588c-0.6,1.032 -1.412,1.828 -2.436,2.388c-1.024,0.56 -2.16,0.84 -3.408,0.84zm0,-1.92c0.784,0 1.52,-0.184 2.208,-0.552c0.688,-0.368 1.244,-0.92 1.668,-1.656c0.424,-0.736 0.636,-1.632 0.636,-2.688c0,-1.056 -0.208,-1.952 -0.624,-2.688c-0.416,-0.736 -0.96,-1.284 -1.632,-1.644c-0.672,-0.36 -1.4,-0.54 -2.184,-0.54c-0.8,0 -1.532,0.18 -2.196,0.54c-0.664,0.36 -1.196,0.908 -1.596,1.644c-0.4,0.736 -0.6,1.632 -0.6,2.688c0,1.072 0.196,1.976 0.588,2.712c0.392,0.736 0.916,1.284 1.572,1.644c0.656,0.36 1.376,0.54 2.16,0.54zm8.7813,-4.92c0,-1.344 0.272,-2.524 0.816,-3.54c0.544,-1.016 1.292,-1.804 2.244,-2.364c0.952,-0.56 2.02,-0.84 3.204,-0.84c1.024,0 1.976,0.236 2.856,0.708c0.88,0.472 1.552,1.092 2.016,1.86l0,-6.96l2.208,0l0,17.76l-2.208,0l0,-2.472c-0.432,0.784 -1.072,1.428 -1.92,1.932c-0.848,0.504 -1.84,0.756 -2.976,0.756c-1.168,0 -2.228,-0.288 -3.18,-0.864c-0.952,-0.576 -1.7,-1.384 -2.244,-2.424c-0.544,-1.04 -0.816,-2.224 -0.816,-3.552zm11.136,0.024c0,-0.992 -0.2,-1.856 -0.6,-2.592c-0.4,-0.736 -0.94,-1.3 -1.62,-1.692c-0.68,-0.392 -1.428,-0.588 -2.244,-0.588c-0.816,0 -1.56,0.192 -2.232,0.576c-0.672,0.384 -1.208,0.944 -1.608,1.68c-0.4,0.736 -0.6,1.6 -0.6,2.592c0,1.008 0.2,1.884 0.6,2.628c0.4,0.744 0.936,1.312 1.608,1.704c0.672,0.392 1.416,0.588 2.232,0.588c0.816,0 1.564,-0.196 2.244,-0.588c0.68,-0.392 1.22,-0.96 1.62,-1.704c0.4,-0.744 0.6,-1.612 0.6,-2.604zm17.8467,-0.48c0,0.416 -0.024,0.856 -0.072,1.32l-10.512,0c0.08,1.296 0.524,2.308 1.332,3.036c0.808,0.728 1.788,1.092 2.94,1.092c0.944,0 1.732,-0.22 2.364,-0.66c0.632,-0.44 1.076,-1.028 1.332,-1.764l2.352,0c-0.352,1.264 -1.056,2.292 -2.112,3.084c-1.056,0.792 -2.368,1.188 -3.936,1.188c-1.248,0 -2.364,-0.28 -3.348,-0.84c-0.984,-0.56 -1.756,-1.356 -2.316,-2.388c-0.56,-1.032 -0.84,-2.228 -0.84,-3.588c0,-1.36 0.272,-2.552 0.816,-3.576c0.544,-1.024 1.308,-1.812 2.292,-2.364c0.984,-0.552 2.116,-0.828 3.396,-0.828c1.248,0 2.352,0.272 3.312,0.816c0.96,0.544 1.7,1.292 2.22,2.244c0.52,0.952 0.78,2.028 0.78,3.228zm-2.256,-0.456c0,-0.832 -0.184,-1.548 -0.552,-2.148c-0.368,-0.6 -0.868,-1.056 -1.5,-1.368c-0.632,-0.312 -1.332,-0.468 -2.1,-0.468c-1.104,0 -2.044,0.352 -2.82,1.056c-0.776,0.704 -1.22,1.68 -1.332,2.928l8.304,0zm7.2733,-10.224l0,17.76l-2.184,0l0,-17.76l2.184,0z" fill="#FFFFFF" id="svg_80"/>
    </g>
   </g>
   <text fill="#FFFFFF" font-family="Poppins,Poppins_MSFontService,sans-serif" font-weight="400" font-size="24" y="644" x="248.42599" id="svg_81">Model</text>
   <path d="m397,596.667c0,-6.996 5.671,-12.667 12.667,-12.667l166.666,0c6.996,0 12.667,5.671 12.667,12.667l0,50.666c0,6.996 -5.671,12.667 -12.667,12.667l-166.666,0c-6.996,0 -12.667,-5.671 -12.667,-12.667l0,-50.666z" fill="#A5A5A5" fill-rule="evenodd" id="svg_82"/>
   <g clip-path="url(#clip28)" filter="url(#fx13)" id="svg_83">
    <g id="svg_84">
     <path d="m429.5578,607.624c0,-1.632 0.368,-3.1 1.104,-4.404c0.736,-1.304 1.74,-2.324 3.012,-3.06c1.272,-0.736 2.684,-1.104 4.236,-1.104c1.824,0 3.416,0.44 4.776,1.32c1.36,0.88 2.352,2.128 2.976,3.744l-2.616,0c-0.464,-1.008 -1.132,-1.784 -2.004,-2.328c-0.872,-0.544 -1.916,-0.816 -3.132,-0.816c-1.168,0 -2.216,0.272 -3.144,0.816c-0.928,0.544 -1.656,1.316 -2.184,2.316c-0.528,1 -0.792,2.172 -0.792,3.516c0,1.328 0.264,2.492 0.792,3.492c0.528,1 1.256,1.772 2.184,2.316c0.928,0.544 1.976,0.816 3.144,0.816c1.216,0 2.26,-0.268 3.132,-0.804c0.872,-0.536 1.54,-1.308 2.004,-2.316l2.616,0c-0.624,1.6 -1.616,2.836 -2.976,3.708c-1.36,0.872 -2.952,1.308 -4.776,1.308c-1.552,0 -2.964,-0.364 -4.236,-1.092c-1.272,-0.728 -2.276,-1.74 -3.012,-3.036c-0.736,-1.296 -1.104,-2.76 -1.104,-4.392zm25.052,8.592c-1.232,0 -2.348,-0.28 -3.348,-0.84c-1,-0.56 -1.784,-1.356 -2.352,-2.388c-0.568,-1.032 -0.852,-2.228 -0.852,-3.588c0,-1.344 0.292,-2.532 0.876,-3.564c0.584,-1.032 1.38,-1.824 2.388,-2.376c1.008,-0.552 2.136,-0.828 3.384,-0.828c1.248,0 2.376,0.276 3.384,0.828c1.008,0.552 1.804,1.34 2.388,2.364c0.584,1.024 0.876,2.216 0.876,3.576c0,1.36 -0.3,2.556 -0.9,3.588c-0.6,1.032 -1.412,1.828 -2.436,2.388c-1.024,0.56 -2.16,0.84 -3.408,0.84zm0,-1.92c0.784,0 1.52,-0.184 2.208,-0.552c0.688,-0.368 1.244,-0.92 1.668,-1.656c0.424,-0.736 0.636,-1.632 0.636,-2.688c0,-1.056 -0.208,-1.952 -0.624,-2.688c-0.416,-0.736 -0.96,-1.284 -1.632,-1.644c-0.672,-0.36 -1.4,-0.54 -2.184,-0.54c-0.8,0 -1.532,0.18 -2.196,0.54c-0.664,0.36 -1.196,0.908 -1.596,1.644c-0.4,0.736 -0.6,1.632 -0.6,2.688c0,1.072 0.196,1.976 0.588,2.712c0.392,0.736 0.916,1.284 1.572,1.644c0.656,0.36 1.376,0.54 2.16,0.54zm25.4133,-11.688c1.024,0 1.936,0.212 2.736,0.636c0.8,0.424 1.432,1.06 1.896,1.908c0.464,0.848 0.696,1.88 0.696,3.096l0,7.752l-2.16,0l0,-7.44c0,-1.312 -0.324,-2.316 -0.972,-3.012c-0.648,-0.696 -1.524,-1.044 -2.628,-1.044c-1.136,0 -2.04,0.364 -2.712,1.092c-0.672,0.728 -1.008,1.78 -1.008,3.156l0,7.248l-2.16,0l0,-7.44c0,-1.312 -0.324,-2.316 -0.972,-3.012c-0.648,-0.696 -1.524,-1.044 -2.628,-1.044c-1.136,0 -2.04,0.364 -2.712,1.092c-0.672,0.728 -1.008,1.78 -1.008,3.156l0,7.248l-2.184,0l0,-13.152l2.184,0l0,1.896c0.432,-0.688 1.012,-1.216 1.74,-1.584c0.728,-0.368 1.532,-0.552 2.412,-0.552c1.104,0 2.08,0.248 2.928,0.744c0.848,0.496 1.48,1.224 1.896,2.184c0.368,-0.928 0.976,-1.648 1.824,-2.16c0.848,-0.512 1.792,-0.768 2.832,-0.768zm24.6667,0c1.024,0 1.936,0.212 2.736,0.636c0.8,0.424 1.432,1.06 1.896,1.908c0.464,0.848 0.696,1.88 0.696,3.096l0,7.752l-2.16,0l0,-7.44c0,-1.312 -0.324,-2.316 -0.972,-3.012c-0.648,-0.696 -1.524,-1.044 -2.628,-1.044c-1.136,0 -2.04,0.364 -2.712,1.092c-0.672,0.728 -1.008,1.78 -1.008,3.156l0,7.248l-2.16,0l0,-7.44c0,-1.312 -0.324,-2.316 -0.972,-3.012c-0.648,-0.696 -1.524,-1.044 -2.628,-1.044c-1.136,0 -2.04,0.364 -2.712,1.092c-0.672,0.728 -1.008,1.78 -1.008,3.156l0,7.248l-2.184,0l0,-13.152l2.184,0l0,1.896c0.432,-0.688 1.012,-1.216 1.74,-1.584c0.728,-0.368 1.532,-0.552 2.412,-0.552c1.104,0 2.08,0.248 2.928,0.744c0.848,0.496 1.48,1.224 1.896,2.184c0.368,-0.928 0.976,-1.648 1.824,-2.16c0.848,-0.512 1.792,-0.768 2.832,-0.768zm8.0347,6.768c0,-1.344 0.272,-2.524 0.816,-3.54c0.544,-1.016 1.292,-1.804 2.244,-2.364c0.952,-0.56 2.012,-0.84 3.18,-0.84c1.152,0 2.152,0.248 3,0.744c0.848,0.496 1.48,1.12 1.896,1.872l0,-2.4l2.208,0l0,13.152l-2.208,0l0,-2.448c-0.432,0.768 -1.076,1.404 -1.932,1.908c-0.856,0.504 -1.852,0.756 -2.988,0.756c-1.168,0 -2.224,-0.288 -3.168,-0.864c-0.944,-0.576 -1.688,-1.384 -2.232,-2.424c-0.544,-1.04 -0.816,-2.224 -0.816,-3.552zm11.136,0.024c0,-0.992 -0.2,-1.856 -0.6,-2.592c-0.4,-0.736 -0.94,-1.3 -1.62,-1.692c-0.68,-0.392 -1.428,-0.588 -2.244,-0.588c-0.816,0 -1.56,0.192 -2.232,0.576c-0.672,0.384 -1.208,0.944 -1.608,1.68c-0.4,0.736 -0.6,1.6 -0.6,2.592c0,1.008 0.2,1.884 0.6,2.628c0.4,0.744 0.936,1.312 1.608,1.704c0.672,0.392 1.416,0.588 2.232,0.588c0.816,0 1.564,-0.196 2.244,-0.588c0.68,-0.392 1.22,-0.96 1.62,-1.704c0.4,-0.744 0.6,-1.612 0.6,-2.604zm12.2543,-6.792c1.6,0 2.896,0.484 3.888,1.452c0.992,0.968 1.488,2.364 1.488,4.188l0,7.752l-2.16,0l0,-7.44c0,-1.312 -0.328,-2.316 -0.984,-3.012c-0.656,-0.696 -1.552,-1.044 -2.688,-1.044c-1.152,0 -2.068,0.36 -2.748,1.08c-0.68,0.72 -1.02,1.768 -1.02,3.144l0,7.272l-2.184,0l0,-13.152l2.184,0l0,1.872c0.432,-0.672 1.02,-1.192 1.764,-1.56c0.744,-0.368 1.564,-0.552 2.46,-0.552zm8.11,6.768c0,-1.344 0.272,-2.524 0.816,-3.54c0.544,-1.016 1.292,-1.804 2.244,-2.364c0.952,-0.56 2.02,-0.84 3.204,-0.84c1.024,0 1.976,0.236 2.856,0.708c0.88,0.472 1.552,1.092 2.016,1.86l0,-6.96l2.208,0l0,17.76l-2.208,0l0,-2.472c-0.432,0.784 -1.072,1.428 -1.92,1.932c-0.848,0.504 -1.84,0.756 -2.976,0.756c-1.168,0 -2.228,-0.288 -3.18,-0.864c-0.952,-0.576 -1.7,-1.384 -2.244,-2.424c-0.544,-1.04 -0.816,-2.224 -0.816,-3.552zm11.136,0.024c0,-0.992 -0.2,-1.856 -0.6,-2.592c-0.4,-0.736 -0.94,-1.3 -1.62,-1.692c-0.68,-0.392 -1.428,-0.588 -2.244,-0.588c-0.816,0 -1.56,0.192 -2.232,0.576c-0.672,0.384 -1.208,0.944 -1.608,1.68c-0.4,0.736 -0.6,1.6 -0.6,2.592c0,1.008 0.2,1.884 0.6,2.628c0.4,0.744 0.936,1.312 1.608,1.704c0.672,0.392 1.416,0.588 2.232,0.588c0.816,0 1.564,-0.196 2.244,-0.588c0.68,-0.392 1.22,-0.96 1.62,-1.704c0.4,-0.744 0.6,-1.612 0.6,-2.604z" fill="#FFFFFF" id="svg_85"/>
    </g>
   </g>
   <text fill="#FFFFFF" font-family="Poppins,Poppins_MSFontService,sans-serif" font-weight="400" font-size="24" y="615" x="427.341" id="svg_86">Command</text>
   <g clip-path="url(#clip29)" filter="url(#fx14)" id="svg_87">
    <g id="svg_88">
     <path d="m476.3418,628.392l0,16.608l-2.184,0l0,-12.384l-5.52,12.384l-1.536,0l-5.544,-12.408l0,12.408l-2.184,0l0,-16.608l2.352,0l6.144,13.728l6.144,-13.728l2.328,0zm9.4347,16.824c-1.232,0 -2.348,-0.28 -3.348,-0.84c-1,-0.56 -1.784,-1.356 -2.352,-2.388c-0.568,-1.032 -0.852,-2.228 -0.852,-3.588c0,-1.344 0.292,-2.532 0.876,-3.564c0.584,-1.032 1.38,-1.824 2.388,-2.376c1.008,-0.552 2.136,-0.828 3.384,-0.828c1.248,0 2.376,0.276 3.384,0.828c1.008,0.552 1.804,1.34 2.388,2.364c0.584,1.024 0.876,2.216 0.876,3.576c0,1.36 -0.3,2.556 -0.9,3.588c-0.6,1.032 -1.412,1.828 -2.436,2.388c-1.024,0.56 -2.16,0.84 -3.408,0.84zm0,-1.92c0.784,0 1.52,-0.184 2.208,-0.552c0.688,-0.368 1.244,-0.92 1.668,-1.656c0.424,-0.736 0.636,-1.632 0.636,-2.688c0,-1.056 -0.208,-1.952 -0.624,-2.688c-0.416,-0.736 -0.96,-1.284 -1.632,-1.644c-0.672,-0.36 -1.4,-0.54 -2.184,-0.54c-0.8,0 -1.532,0.18 -2.196,0.54c-0.664,0.36 -1.196,0.908 -1.596,1.644c-0.4,0.736 -0.6,1.632 -0.6,2.688c0,1.072 0.196,1.976 0.588,2.712c0.392,0.736 0.916,1.284 1.572,1.644c0.656,0.36 1.376,0.54 2.16,0.54zm8.7813,-4.92c0,-1.344 0.272,-2.524 0.816,-3.54c0.544,-1.016 1.292,-1.804 2.244,-2.364c0.952,-0.56 2.02,-0.84 3.204,-0.84c1.024,0 1.976,0.236 2.856,0.708c0.88,0.472 1.552,1.092 2.016,1.86l0,-6.96l2.208,0l0,17.76l-2.208,0l0,-2.472c-0.432,0.784 -1.072,1.428 -1.92,1.932c-0.848,0.504 -1.84,0.756 -2.976,0.756c-1.168,0 -2.228,-0.288 -3.18,-0.864c-0.952,-0.576 -1.7,-1.384 -2.244,-2.424c-0.544,-1.04 -0.816,-2.224 -0.816,-3.552zm11.136,0.024c0,-0.992 -0.2,-1.856 -0.6,-2.592c-0.4,-0.736 -0.94,-1.3 -1.62,-1.692c-0.68,-0.392 -1.428,-0.588 -2.244,-0.588c-0.816,0 -1.56,0.192 -2.232,0.576c-0.672,0.384 -1.208,0.944 -1.608,1.68c-0.4,0.736 -0.6,1.6 -0.6,2.592c0,1.008 0.2,1.884 0.6,2.628c0.4,0.744 0.936,1.312 1.608,1.704c0.672,0.392 1.416,0.588 2.232,0.588c0.816,0 1.564,-0.196 2.244,-0.588c0.68,-0.392 1.22,-0.96 1.62,-1.704c0.4,-0.744 0.6,-1.612 0.6,-2.604zm17.8467,-0.48c0,0.416 -0.024,0.856 -0.072,1.32l-10.512,0c0.08,1.296 0.524,2.308 1.332,3.036c0.808,0.728 1.788,1.092 2.94,1.092c0.944,0 1.732,-0.22 2.364,-0.66c0.632,-0.44 1.076,-1.028 1.332,-1.764l2.352,0c-0.352,1.264 -1.056,2.292 -2.112,3.084c-1.056,0.792 -2.368,1.188 -3.936,1.188c-1.248,0 -2.364,-0.28 -3.348,-0.84c-0.984,-0.56 -1.756,-1.356 -2.316,-2.388c-0.56,-1.032 -0.84,-2.228 -0.84,-3.588c0,-1.36 0.272,-2.552 0.816,-3.576c0.544,-1.024 1.308,-1.812 2.292,-2.364c0.984,-0.552 2.116,-0.828 3.396,-0.828c1.248,0 2.352,0.272 3.312,0.816c0.96,0.544 1.7,1.292 2.22,2.244c0.52,0.952 0.78,2.028 0.78,3.228zm-2.256,-0.456c0,-0.832 -0.184,-1.548 -0.552,-2.148c-0.368,-0.6 -0.868,-1.056 -1.5,-1.368c-0.632,-0.312 -1.332,-0.468 -2.1,-0.468c-1.104,0 -2.044,0.352 -2.82,1.056c-0.776,0.704 -1.22,1.68 -1.332,2.928l8.304,0zm7.2733,-10.224l0,17.76l-2.184,0l0,-17.76l2.184,0z" fill="#FFFFFF" id="svg_89"/>
    </g>
   </g>
   <text fill="#FFFFFF" font-family="Poppins,Poppins_MSFontService,sans-serif" font-weight="400" font-size="24" y="644" x="456.341" id="svg_90">Model</text>
   <g id="svg_91">
    <g id="svg_92">
     <g id="svg_93">
      <path d="m89.35088,209.3834c0.90064,-1.3744 1.04362,-3.0959 0.37162,-4.5979c-1.01496,-2.267 -2.15878,-5.6038 -3.36676,-9.146c-1.99441,-5.8306 -4.06026,-11.8666 -6.06899,-14.6933c-5.12537,-7.2191 -13.50318,-11.5336 -22.41717,-11.5336l-8.47074,0c-14.0322,0 -25.86985,10.8464 -26.37739,24.1723c-0.28593,7.3679 2.69492,14.4383 8.1777,19.447l0,21.1331c0,0.9847 0.80775,1.7853 1.80138,1.7853l2.0516,0c0.99357,0 1.80139,-0.8006 1.80139,-1.7853l0,-23.6339l-1.62269,-1.4382c-4.39624,-3.9035 -6.78379,-9.479 -6.56219,-15.2954c0.4003,-10.3505 9.70031,-18.781 20.7302,-18.781l8.46358,0c7.06973,0 13.72486,3.4218 17.79228,9.1531c1.53682,2.1679 3.63849,8.3102 5.33978,13.2693c1.07934,3.1526 2.10873,6.1564 3.08807,8.5368l-7.79168,0l0,12.9576c0,1.8136 -1.48688,3.2872 -3.31682,3.2872l-13.08151,0l0,11.9445c0,0.9847 0.80781,1.7853 1.80139,1.7853l2.05162,0c0.99357,0 1.80139,-0.8006 1.80139,-1.7853l0,-6.3406l7.41996,0c4.94667,0 8.97827,-3.9886 8.97827,-8.8982l0,-7.3466l3.31682,0c1.65124,0 3.181,-0.8218 4.08891,-2.1962l-0.00002,0z" fill="#0EAFE0" id="svg_94"/>
      <path d="m68.8709,194.5626c0,-2.2458 -1.83721,-4.0594 -4.09608,-4.0594c-2.25887,0 -4.09598,1.8207 -4.09598,4.0594c0,2.2458 1.8371,4.0594 4.09598,4.0594c2.25887,0 4.09608,-1.8207 4.09608,-4.0594z" fill="#0EAFE0" id="svg_95"/>
      <path d="m88.75748,215.2352c-1.10789,0 -2.00147,0.8856 -2.00147,1.9836l0,7.0137c0,1.0981 0.89358,1.9837 2.00147,1.9837c1.10799,0 2.00157,-0.8856 2.00157,-1.9837l0,-7.0137c0,-1.091 -0.90064,-1.9836 -2.00157,-1.9836z" fill="#0EAFE0" id="svg_96"/>
      <path d="m95.07661,211.8842c-1.10799,0 -2.00147,0.8856 -2.00147,1.9837l0,13.7227c0,1.0981 0.89348,1.9836 2.00147,1.9836c1.10799,0 2.00157,-0.8855 2.00157,-1.9836l0,-13.7227c0,-1.0981 -0.90064,-1.9837 -2.00157,-1.9837z" fill="#0EAFE0" id="svg_97"/>
      <path d="m101.39573,216.815c-1.10799,0 -2.00147,0.8856 -2.00147,1.9837l0,3.8611c0,1.098 0.89348,1.9836 2.00147,1.9836c1.10799,0 2.00157,-0.8856 2.00157,-1.9836l0,-3.8611c0,-1.0981 -0.89358,-1.9837 -2.00157,-1.9837z" fill="#0EAFE0" id="svg_98"/>
      <path d="m107.71496,208.2357c-1.10799,0 -2.00157,0.8856 -2.00157,1.9837l0,21.0126c0,1.0981 0.89358,1.9837 2.00157,1.9837c1.10789,0 2.00147,-0.8856 2.00147,-1.9837l0,-21.0126c0,-1.0911 -0.89358,-1.9837 -2.00147,-1.9837z" fill="#0EAFE0" id="svg_99"/>
      <path d="m114.04115,212.3093c-1.10799,0 -2.00147,0.8856 -2.00147,1.9836l0,12.8655c0,1.0981 0.89348,1.9837 2.00147,1.9837c1.10799,0 2.00157,-0.8856 2.00157,-1.9837l0,-12.8655c0,-1.091 -0.90074,-1.9836 -2.00157,-1.9836z" fill="#0EAFE0" id="svg_100"/>
      <path d="m120.36028,202.8798c-1.10799,0 -2.00147,0.8856 -2.00147,1.9837l0,31.7315c0,1.0981 0.89348,1.9836 2.00147,1.9836c1.10799,0 2.00157,-0.8855 2.00157,-1.9836l0,-31.7315c0,-1.0981 -0.89358,-1.9837 -2.00157,-1.9837z" fill="#0EAFE0" id="svg_101"/>
      <path d="m126.67981,214.6684c-1.10789,0 -2.00188,0.8856 -2.00188,1.9837l0,8.1472c0,1.0981 0.89398,1.9836 2.00188,1.9836c1.10789,0 2.00087,-0.8855 2.00087,-1.9836l0,-8.1472c0,-1.091 -0.89297,-1.9837 -2.00087,-1.9837z" fill="#0EAFE0" id="svg_102"/>
      <path d="m132.99823,208.2357c-1.10789,0 -2.00087,0.8856 -2.00087,1.9837l0,21.0126c0,1.0981 0.89297,1.9837 2.00087,1.9837c1.10789,0 2.00188,-0.8856 2.00188,-1.9837l0,-21.0126c0,-1.0911 -0.89398,-1.9837 -2.00188,-1.9837z" fill="#0EAFE0" id="svg_103"/>
     </g>
    </g>
   </g>
   <path d="m153,209l67.08,0l0,4l-67.08,0l0,-4zm56.088,-6.727l14.961,8.727l-14.961,8.728c-0.954,0.556 -2.179,0.234 -2.736,-0.72c-0.556,-0.954 -0.234,-2.179 0.72,-2.735l12,-7l0,3.455l-12,-7c-0.954,-0.557 -1.276,-1.782 -0.72,-2.736c0.557,-0.954 1.782,-1.276 2.736,-0.719z" fill="#3ECAFB" id="svg_104"/>
   <path d="m391,138l0,19.892l-4,0.001l0,-19.893l4,0zm4,17.892l-6,12l-6,-11.999l12,-0.001z" fill="#3ECAFB" id="svg_105"/>
   <path d="m391,245l0,105.013l-4,0l0,-105.013l4,0zm4,103.012l-6,12l-6,-11.999l12,-0.001z" fill="#3ECAFB" id="svg_106"/>
   <path d="m391,470.60502l0.00007,-23.60481l-4,0l-0.00007,23.60479l4,0.00002zm4.00007,-21.60481l-5.99997,-12l-6.00003,12l12,0z" fill="#3ECAFB" id="svg_107"/>
   <path d="m287,581.60499l0.00007,-23.60481l-4,0l-0.00007,23.60479l4,0.00002zm4.00007,-21.60481l-5.99997,-12l-6.00003,12l12,0z" fill="#3ECAFB" id="svg_108"/>
   <path d="m495,581.60499l0.00007,-23.60481l-4,0l-0.00007,23.60479l4,0.00002zm4.00007,-21.60481l-5.99997,-12l-6.00003,12l12,0z" fill="#3ECAFB" id="svg_109"/>
   <path d="m531,400.29999l34.2538,0l0,-56.2996l-2,2l22.2537,0l0,-4l-24.2537,0l0,56.2996l2,-2l-32.2538,0l0,4zm52.5075,-50.2996l12,-6l-12,-6l0,12z" fill="#3ECAFB" id="svg_110"/>
   <path d="m531,396l34.254,0l0,62.713l-2,-2l22.254,0l0,4l-24.254,0l0,-62.713l2,2l-32.254,0l0,-4zm52.508,56.713l12,6l-12,6l0,-12z" fill="#3ECAFB" id="svg_111"/>
   <path d="m881,342l27.882,0l0,56.3l-2,-2l28.626,0l0,4l-30.626,0l0,-56.3l2,2l-25.882,0l0,-4zm52.508,50.3l12,6l-12,6l0,-12z" fill="#3ECAFB" id="svg_112"/>
   <path d="m881,460.71301l27.8539,0l0,-62.7131l-2,2l28.6536,0l0,-4l-30.6536,0l0,62.7131l2,-2l-25.8539,0l0,4zm52.5075,-56.7131l12,-6l-12,-6l0,12z" fill="#3ECAFB" id="svg_113"/>
   <path d="m1029,589.22498l0.0001,-142.225l-4,0l-0.0001,142.225l4,0zm4.0001,-140.225l-6,-12l-6,12l12,0z" fill="#3ECAFB" id="svg_114"/>
   <path d="m1165.33,480.367l-0.25,-33.352l4,-0.031l0.25,33.352l-4,0.031zm-4.24,-31.321l5.91,-12.046l6.09,11.954l-12,0.092z" fill="#3ECAFB" id="svg_115"/>
   <path d="m1169,566.999l0.01,12.168l-4,0.001l-0.01,-12.167l4,-0.002zm-8,2.003l6,-12.002l6,11.998l-12,0.004zm12.01,8.164l-6,12.001l-6,-11.998l12,-0.003z" fill="#3ECAFB" id="svg_116"/>
   <text fill="#3ECAFB" font-family="Poppins,Poppins_MSFontService,sans-serif" font-weight="700" font-size="24" y="272" x="57.3212" id="svg_117">Voice</text>
   <text fill="#3ECAFB" font-family="Poppins,Poppins_MSFontService,sans-serif" font-weight="700" font-size="24" y="301" x="18.6545" id="svg_118">Commands</text>
   <text fill="#3ECAFB" font-family="Poppins,Poppins_MSFontService,sans-serif" font-weight="700" font-size="24" y="295" x="277.005" id="svg_119">Clean</text>
   <text fill="#3ECAFB" font-family="Poppins,Poppins_MSFontService,sans-serif" font-weight="700" font-size="24" y="324" x="278.758" id="svg_120">Voice</text>
   <text fill="#3ECAFB" font-family="Poppins,Poppins_MSFontService,sans-serif" font-weight="700" font-size="24" y="296" x="499.31" id="svg_121">System</text>
   <text fill="#3ECAFB" font-family="Poppins,Poppins_MSFontService,sans-serif" font-weight="700" font-size="24" y="325" x="521.56403" id="svg_122">Call</text>
   <text fill="#3ECAFB" font-family="Poppins,Poppins_MSFontService,sans-serif" font-weight="700" font-size="24" y="296" x="888.44202" id="svg_123">Message</text>
   <text fill="#3ECAFB" font-family="Poppins,Poppins_MSFontService,sans-serif" font-weight="700" font-size="24" y="325" x="903.52197" id="svg_124">Queue</text>
   <rect x="866.5" y="20.5001" width="41" height="37" stroke="#0EAFE0" stroke-width="1.33333" stroke-miterlimit="8" fill="#0EAFE0" id="svg_125"/>
   <text fill="#0EAFE0" font-family="Poppins,Poppins_MSFontService,sans-serif" font-weight="700" font-size="21" y="46" x="919.76501" id="svg_126">Binary</text>
   <text fill="#0EAFE0" font-family="Poppins,Poppins_MSFontService,sans-serif" font-weight="700" font-size="21" y="46" x="996.09802" id="svg_127">File</text>
   <rect x="866.5" y="81.5001" width="41" height="37" stroke="#69CA00" stroke-width="1.33333" stroke-miterlimit="8" fill="#69CA00" id="svg_128"/>
   <text fill="#69CA00" font-family="Poppins,Poppins_MSFontService,sans-serif" font-weight="700" font-size="21" y="107" x="919.76501" id="svg_129">Library</text>
   <text fill="#69CA00" font-family="Poppins,Poppins_MSFontService,sans-serif" font-weight="700" font-size="21" y="107" x="997.09802" id="svg_130">/Software</text>
   <text fill="#69CA00" font-family="Poppins,Poppins_MSFontService,sans-serif" font-weight="700" font-size="21" y="107" x="1109.76001" id="svg_131">P</text>
   <text fill="#69CA00" font-family="Poppins,Poppins_MSFontService,sans-serif" font-weight="700" font-size="21" y="107" x="1123.09998" id="svg_132">ackage</text>
   <rect x="865.5" y="142.5" width="41" height="37" stroke="#F9B500" stroke-width="1.33333" stroke-miterlimit="8" fill="#F9B500" id="svg_133"/>
   <text fill="#F9B500" font-family="Poppins,Poppins_MSFontService,sans-serif" font-weight="700" font-size="21" y="168" x="919.76501" id="svg_134">Python</text>
   <text fill="#F9B500" font-family="Poppins,Poppins_MSFontService,sans-serif" font-weight="700" font-size="21" y="168" x="1002.09998" id="svg_135">Script</text>
   <rect x="865" y="203" width="41" height="36" fill="#A5A5A5" id="svg_136"/>
   <text fill="#A5A5A5" font-family="Poppins,Poppins_MSFontService,sans-serif" font-weight="700" font-size="21" y="228" x="919.76501" id="svg_137">Model</text>
  </g>
 </g>
</svg>